<?xml version="1.0" encoding="utf-8"?>
<!-- Generator: Adobe Illustrator 19.0.0, SVG Export Plug-In . SVG Version: 6.00 Build 0)  -->
<svg version="1.1" id="Layer_1" xmlns="http://www.w3.org/2000/svg" xmlns:xlink="http://www.w3.org/1999/xlink" x="0px" y="0px"
	 viewBox="-225.2 365.7 73.2 56.5" style="enable-background:new -225.2 365.7 73.2 56.5;" xml:space="preserve">
<style type="text/css">
	.st0{display:none;}
</style>
<g id="Layer_2" class="st0">
</g>
<g id="Layer_1_1_">
	<g>
		<path d="M-225.2,371.1h8.2v1.5h-8.2V371.1z"/>
		<path d="M-210.1,365.9h3.6c2.5,0,4.3,0.8,4.3,3c0,1.1-0.7,2.2-2.1,2.6v0.1c1.8,0.3,2.7,1.2,2.7,2.9c0,2.4-1.9,3.5-4.6,3.5h-3.9
			L-210.1,365.9L-210.1,365.9z M-206.8,370.9c1.7,0,2.4-0.6,2.4-1.8c0-1.1-0.8-1.6-2.3-1.6h-1.3v3.3
			C-208,370.9-206.8,370.9-206.8,370.9z M-206.5,376.3c1.8,0,2.7-0.7,2.7-2c0-1.3-0.9-1.8-2.7-1.8h-1.5v3.9L-206.5,376.3
			L-206.5,376.3z"/>
		<path d="M-189.6,374.7h-4l-0.9,3.3h-2.2l3.9-12.1h2.5l3.9,12.1h-2.3L-189.6,374.7z M-190.1,373l-0.4-1.5c-0.3-1.3-0.7-2.7-1.1-4
			h-0.1c-0.3,1.3-0.7,2.7-1.1,4l-0.4,1.5H-190.1z"/>
		<path d="M-175.7,365.7c1.5,0,2.7,0.7,3.4,1.5l-1.2,1.3c-0.6-0.6-1.3-1-2.2-1c-2,0-3.4,1.7-3.4,4.4c0,2.7,1.4,4.4,3.4,4.4
			c1,0,1.7-0.4,2.4-1.2l1.2,1.3c-1,1.1-2.2,1.8-3.7,1.8c-3.1,0-5.5-2.2-5.5-6.2C-181.3,368-178.9,365.7-175.7,365.7z"/>
		<path d="M-166.1,365.9h2.2v5.5h0.1l4.3-5.5h2.4l-3.7,4.7l4.1,7.4h-2.4l-3-5.7l-1.8,2.2v3.5h-2.2V365.9z"/>
		<path d="M-200,389.8h-3.8V388h9.7v1.8h-3.8V400h-2.1L-200,389.8L-200,389.8z"/>
		<path d="M-189,393.9c0-3.9,1.9-6.2,4.7-6.2c2.8,0,4.7,2.3,4.7,6.2c0,3.9-1.9,6.3-4.7,6.3C-187,400.2-189,397.8-189,393.9z
			 M-181.7,393.9c0-2.7-1-4.3-2.5-4.3c-1.5,0-2.5,1.6-2.5,4.3c0,2.7,1,4.4,2.5,4.4S-181.7,396.7-181.7,393.9z"/>
		<path d="M-214.8,411.9h-3.8v-1.8h9.7v1.8h-3.8v10.2h-2.1L-214.8,411.9L-214.8,411.9z"/>
		<path d="M-203.7,416c0-3.9,1.9-6.2,4.7-6.2c2.8,0,4.7,2.3,4.7,6.2c0,3.9-1.9,6.3-4.7,6.3C-201.8,422.3-203.7,419.9-203.7,416z
			 M-196.4,416c0-2.7-1-4.3-2.5-4.3c-1.5,0-2.5,1.6-2.5,4.3c0,2.7,1,4.4,2.5,4.4C-197.4,420.5-196.4,418.8-196.4,416z"/>
		<path d="M-188.2,410.1h4.1c2.7,0,4.6,0.9,4.6,3.7c0,2.7-2,3.9-4.6,3.9h-1.9v4.4h-2.1C-188.2,422.1-188.2,410.1-188.2,410.1z
			 M-184.3,416c1.8,0,2.7-0.7,2.7-2.2c0-1.5-0.9-2-2.7-2h-1.8v4.2H-184.3z"/>
		<path d="M-173.6,415.3h8.2v1.5h-8.2V415.3z"/>
	</g>
</g>
</svg>
