<?xml version="1.0" encoding="utf-8"?>
<!-- Generator: Adobe Illustrator 16.0.4, SVG Export Plug-In . SVG Version: 6.00 Build 0)  -->
<!DOCTYPE svg PUBLIC "-//W3C//DTD SVG 1.1//EN" "http://www.w3.org/Graphics/SVG/1.1/DTD/svg11.dtd">
<svg version="1.1" xmlns="http://www.w3.org/2000/svg" xmlns:xlink="http://www.w3.org/1999/xlink" x="0px" y="0px" width="114px"
	 height="111px" viewBox="0 0 114 111" enable-background="new 0 0 114 111" xml:space="preserve">
<g id="Layer_2" display="none">
</g>
<g id="Layer_1">
	<g>
		<path d="M22.844,30.069h8.181v1.548h-8.181V30.069z"/>
		<path d="M37.854,24.872h3.556c2.469,0,4.275,0.756,4.275,2.967c0,1.143-0.683,2.248-2.101,2.617v0.073
			c1.751,0.295,2.708,1.235,2.708,2.856c0,2.414-1.935,3.538-4.587,3.538h-3.852V24.872z M41.207,29.866
			c1.677,0,2.377-0.645,2.377-1.769c0-1.106-0.774-1.566-2.321-1.566h-1.271v3.335H41.207z M41.483,35.265
			c1.77,0,2.728-0.664,2.728-2.027c0-1.252-0.922-1.842-2.728-1.842h-1.492v3.87H41.483z"/>
		<path d="M58.371,33.662h-4.017l-0.94,3.262H51.24l3.907-12.051h2.506l3.905,12.051h-2.266L58.371,33.662z M57.893,31.985
			l-0.424-1.474c-0.35-1.272-0.719-2.653-1.069-3.98h-0.073c-0.331,1.345-0.7,2.708-1.068,3.98l-0.424,1.474H57.893z"/>
		<path d="M72.295,24.651c1.473,0,2.652,0.719,3.427,1.511l-1.198,1.327c-0.59-0.59-1.29-0.977-2.229-0.977
			c-2.01,0-3.391,1.658-3.391,4.367c0,2.746,1.381,4.404,3.445,4.404c0.977,0,1.731-0.442,2.414-1.198l1.179,1.308
			c-0.976,1.124-2.21,1.75-3.723,1.75c-3.076,0-5.509-2.211-5.509-6.209C66.711,26.991,69.105,24.651,72.295,24.651z"/>
		<path d="M81.869,24.872h2.155v5.474h0.056l4.293-5.474h2.377l-3.704,4.699l4.109,7.352h-2.378l-3.003-5.675l-1.75,2.156v3.519
			h-2.155V24.872z"/>
		<path d="M47.965,48.778h-3.796v-1.807h9.729v1.807h-3.796v10.245h-2.138V48.778z"/>
		<path d="M59.032,52.942c0-3.888,1.935-6.191,4.734-6.191c2.801,0,4.735,2.303,4.735,6.191c0,3.906-1.935,6.302-4.735,6.302
			C60.967,59.244,59.032,56.849,59.032,52.942z M66.311,52.942c0-2.69-0.996-4.33-2.544-4.33s-2.542,1.64-2.542,4.33
			c0,2.708,0.994,4.441,2.542,4.441S66.311,55.651,66.311,52.942z"/>
		<path d="M33.231,70.878h-3.796v-1.806h9.729v1.806h-3.796v10.245h-2.138V70.878z"/>
		<path d="M44.299,75.042c0-3.888,1.935-6.191,4.734-6.191c2.801,0,4.735,2.303,4.735,6.191c0,3.907-1.935,6.302-4.735,6.302
			C46.233,81.344,44.299,78.949,44.299,75.042z M51.577,75.042c0-2.69-0.996-4.33-2.544-4.33s-2.542,1.64-2.542,4.33
			c0,2.708,0.994,4.441,2.542,4.441S51.577,77.751,51.577,75.042z"/>
		<path d="M59.841,69.072h4.055c2.652,0,4.587,0.921,4.587,3.722c0,2.672-1.989,3.907-4.587,3.907h-1.917v4.422h-2.138V69.072z
			 M63.729,74.987c1.788,0,2.654-0.719,2.654-2.193c0-1.511-0.903-2.009-2.654-2.009h-1.75v4.202H63.729z"/>
		<path d="M74.409,74.269h8.181v1.548h-8.181V74.269z"/>
	</g>
</g>
</svg>
