<?xml version="1.0" encoding="utf-8"?>
<!-- Generator: Adobe Illustrator 16.0.4, SVG Export Plug-In . SVG Version: 6.00 Build 0)  -->
<!DOCTYPE svg PUBLIC "-//W3C//DTD SVG 1.1//EN" "http://www.w3.org/Graphics/SVG/1.1/DTD/svg11.dtd">
<svg version="1.1" xmlns="http://www.w3.org/2000/svg" xmlns:xlink="http://www.w3.org/1999/xlink" x="0px" y="0px" width="114px"
	 height="111px" viewBox="0 0 114 111" enable-background="new 0 0 114 111" xml:space="preserve">
<g id="Layer_2" display="none">
</g>
<g id="Layer_1">
	<g>
		<path d="M35.687,38.861h9.409v1.78h-9.409V38.861z"/>
		<path d="M52.55,32.886h2.5l3.708,7.798l1.293,2.945h0.063c-0.106-1.419-0.339-3.178-0.339-4.725v-6.018h2.352v13.858h-2.5
			l-3.708-7.819l-1.293-2.924h-0.063c0.106,1.461,0.339,3.136,0.339,4.683v6.06H52.55V32.886z"/>
		<path d="M70.134,32.886h8.857v2.076h-6.399V38.5h5.425v2.077h-5.425v4.089h6.611v2.077h-9.068V32.886z"/>
		<path d="M38.866,65.025l-3.814-6.717h2.733l1.631,3.072c0.339,0.635,0.657,1.293,1.081,2.119h0.085
			c0.359-0.826,0.656-1.484,0.974-2.119l1.568-3.072h2.607l-3.815,6.823l4.068,7.035h-2.712l-1.8-3.263
			c-0.382-0.722-0.742-1.42-1.165-2.268h-0.085c-0.381,0.848-0.72,1.546-1.081,2.268l-1.737,3.263h-2.607L38.866,65.025z"/>
		<path d="M56.11,60.384h-4.366v-2.076h11.188v2.076h-4.365v11.782H56.11V60.384z"/>
		<path d="M69.583,64.284h9.409v1.78h-9.409V64.284z"/>
	</g>
</g>
</svg>
