<?xml version="1.0" encoding="utf-8"?>
<!-- Generator: Adobe Illustrator 16.0.4, SVG Export Plug-In . SVG Version: 6.00 Build 0)  -->
<!DOCTYPE svg PUBLIC "-//W3C//DTD SVG 1.1//EN" "http://www.w3.org/Graphics/SVG/1.1/DTD/svg11.dtd">
<svg version="1.1" xmlns="http://www.w3.org/2000/svg" xmlns:xlink="http://www.w3.org/1999/xlink" x="0px" y="0px" width="114px"
	 height="111px" viewBox="0 0 114 111" enable-background="new 0 0 114 111" xml:space="preserve">
<g id="Layer_2" display="none">
</g>
<g id="Layer_1">
	<g>
		<path d="M23.4,38.928h9.348v1.768H23.4V38.928z"/>
		<path d="M40.429,32.991h4.632c3.032,0,5.243,1.052,5.243,4.253c0,3.052-2.274,4.463-5.243,4.463h-2.189v5.053h-2.442V32.991z
			 M44.871,39.749c2.042,0,3.032-0.821,3.032-2.505c0-1.727-1.032-2.295-3.032-2.295h-2v4.8H44.871z"/>
		<path d="M64.658,46.76l-2.948-5.39h-2.063v5.39h-2.442V32.991h4.589c2.864,0,5.074,1.011,5.074,4.084
			c0,2.084-1.095,3.369-2.737,3.938l3.284,5.747H64.658z M59.646,39.433h1.896c1.895,0,2.925-0.8,2.925-2.358
			c0-1.579-1.031-2.126-2.925-2.126h-1.896V39.433z"/>
		<path d="M74.464,32.991h8.8v2.063h-6.357v3.516h5.39v2.063h-5.39v4.063h6.568v2.063h-9.011V32.991z"/>
		<path d="M89.703,32.991h2.59l1.937,6.926c0.442,1.558,0.758,2.906,1.221,4.484h0.084c0.463-1.579,0.779-2.926,1.2-4.484
			l1.916-6.926h2.505L96.882,46.76h-2.885L89.703,32.991z"/>
		<path d="M23.527,69.955h3.327v-9.642h-3.327V58.25h9.095v2.063h-3.326v9.642h3.326v2.063h-9.095V69.955z"/>
		<path d="M39.502,65.071c0-4.442,2.211-7.074,5.412-7.074c3.199,0,5.41,2.632,5.41,7.074c0,4.463-2.211,7.2-5.41,7.2
			C41.713,72.271,39.502,69.534,39.502,65.071z M47.819,65.071c0-3.074-1.137-4.948-2.905-4.948c-1.769,0-2.905,1.874-2.905,4.948
			c0,3.095,1.136,5.074,2.905,5.074C46.682,70.145,47.819,68.166,47.819,65.071z"/>
		<path d="M56.951,58.25h2.443v8.695c0,2.252,0.905,3.2,2.379,3.2c1.495,0,2.442-0.948,2.442-3.2V58.25h2.336v8.506
			c0,3.769-1.747,5.516-4.779,5.516c-3.011,0-4.822-1.748-4.822-5.516V58.25z"/>
		<path d="M74.927,68.586c1.032,0.927,2.4,1.559,3.748,1.559c1.684,0,2.569-0.694,2.569-1.769c0-1.137-0.947-1.495-2.315-2.021
			l-1.875-0.821c-1.453-0.569-2.948-1.643-2.948-3.664c0-2.189,1.98-3.874,4.78-3.874c1.684,0,3.284,0.674,4.421,1.748l-1.263,1.558
			c-0.926-0.737-1.895-1.179-3.158-1.179c-1.432,0-2.315,0.61-2.315,1.622c0,1.073,1.115,1.452,2.358,1.936l1.811,0.779
			c1.747,0.695,2.989,1.726,2.989,3.727c0,2.231-1.895,4.084-5.095,4.084c-1.937,0-3.768-0.737-5.136-2.021L74.927,68.586z"/>
		<path d="M90.756,64.187h9.348v1.769h-9.348V64.187z"/>
	</g>
</g>
</svg>
