<?xml version="1.0" encoding="utf-8"?>
<!-- Generator: Adobe Illustrator 19.0.0, SVG Export Plug-In . SVG Version: 6.00 Build 0)  -->
<svg version="1.1" id="Layer_1" xmlns="http://www.w3.org/2000/svg" xmlns:xlink="http://www.w3.org/1999/xlink" x="0px" y="0px"
	 viewBox="-237 374 90.2 39.3" style="enable-background:new -237 374 90.2 39.3;" xml:space="preserve">
<style type="text/css">
	.st0{display:none;}
</style>
<g id="Layer_2" class="st0">
</g>
<g id="Layer_1_1_">
	<g>
		<path d="M-224.6,379.9h9.3v1.8h-9.3V379.9z"/>
		<path d="M-207.6,374h4.6c3,0,5.2,1.1,5.2,4.3c0,3.1-2.3,4.5-5.2,4.5h-2.2v5.1h-2.4L-207.6,374L-207.6,374z M-203.1,380.7
			c2,0,3-0.8,3-2.5c0-1.7-1-2.3-3-2.3h-2v4.8C-205.1,380.7-203.1,380.7-203.1,380.7z"/>
		<path d="M-183.3,387.8l-2.9-5.4h-2.1v5.4h-2.4V374h4.6c2.9,0,5.1,1,5.1,4.1c0,2.1-1.1,3.4-2.7,3.9l3.3,5.7
			C-180.6,387.8-183.3,387.8-183.3,387.8z M-188.4,380.4h1.9c1.9,0,2.9-0.8,2.9-2.4c0-1.6-1-2.1-2.9-2.1h-1.9
			C-188.4,375.9-188.4,380.4-188.4,380.4z"/>
		<path d="M-173.5,374h8.8v2.1h-6.4v3.5h5.4v2.1h-5.4v4.1h6.6v2.1h-9V374z"/>
		<path d="M-158.3,374h2.6l1.9,6.9c0.4,1.6,0.8,2.9,1.2,4.5h0.1c0.5-1.6,0.8-2.9,1.2-4.5l1.9-6.9h2.5l-4.3,13.8h-2.9L-158.3,374z"/>
		<path d="M-224.5,411h3.3v-9.6h-3.3v-2.1h9.1v2.1h-3.3v9.6h3.3v2.1h-9.1V411z"/>
		<path d="M-208.5,406.1c0-4.4,2.2-7.1,5.4-7.1c3.2,0,5.4,2.6,5.4,7.1c0,4.5-2.2,7.2-5.4,7.2C-206.3,413.3-208.5,410.5-208.5,406.1z
			 M-200.2,406.1c0-3.1-1.1-4.9-2.9-4.9c-1.8,0-2.9,1.9-2.9,4.9c0,3.1,1.1,5.1,2.9,5.1C-201.3,411.1-200.2,409.2-200.2,406.1z"/>
		<path d="M-191,399.2h2.4v8.7c0,2.3,0.9,3.2,2.4,3.2c1.5,0,2.4-0.9,2.4-3.2v-8.7h2.3v8.5c0,3.8-1.7,5.5-4.8,5.5
			c-3,0-4.8-1.7-4.8-5.5L-191,399.2L-191,399.2z"/>
		<path d="M-173.1,409.6c1,0.9,2.4,1.6,3.7,1.6c1.7,0,2.6-0.7,2.6-1.8c0-1.1-0.9-1.5-2.3-2l-1.9-0.8c-1.5-0.6-2.9-1.6-2.9-3.7
			c0-2.2,2-3.9,4.8-3.9c1.7,0,3.3,0.7,4.4,1.7l-1.3,1.6c-0.9-0.7-1.9-1.2-3.2-1.2c-1.4,0-2.3,0.6-2.3,1.6c0,1.1,1.1,1.5,2.4,1.9
			l1.8,0.8c1.7,0.7,3,1.7,3,3.7c0,2.2-1.9,4.1-5.1,4.1c-1.9,0-3.8-0.7-5.1-2L-173.1,409.6z"/>
		<path d="M-157.2,405.2h9.3v1.8h-9.3V405.2z"/>
	</g>
</g>
</svg>
