<?xml version="1.0" encoding="utf-8"?>
<!-- Generator: Adobe Illustrator 16.0.4, SVG Export Plug-In . SVG Version: 6.00 Build 0)  -->
<!DOCTYPE svg PUBLIC "-//W3C//DTD SVG 1.1//EN" "http://www.w3.org/Graphics/SVG/1.1/DTD/svg11.dtd">
<svg version="1.1" xmlns="http://www.w3.org/2000/svg" xmlns:xlink="http://www.w3.org/1999/xlink" x="0px" y="0px" width="114px"
	 height="111px" viewBox="0 0 114 111" enable-background="new 0 0 114 111" xml:space="preserve">
<g id="Layer_2" display="none">
</g>
<g id="Layer_1">
	<g>
		<path d="M33.642,39.547h9.349v1.769h-9.349V39.547z"/>
		<path d="M50.374,33.609h2.527l1.663,5.348l0.59,2.085h0.063l0.568-2.085l1.622-5.348h2.527V47.38h-2v-6.107
			c0-1.305,0.189-3.937,0.294-5.242h-0.063l-0.99,3.369l-1.453,4.275h-1.179L53.069,39.4l-0.968-3.369h-0.063
			c0.105,1.305,0.315,3.937,0.315,5.242v6.107h-1.979V33.609z"/>
		<path d="M66.58,40.432c0-4.443,2.211-7.075,5.411-7.075c3.201,0,5.411,2.632,5.411,7.075c0,4.464-2.21,7.201-5.411,7.201
			C68.791,47.633,66.58,44.896,66.58,40.432z M74.897,40.432c0-3.074-1.137-4.948-2.906-4.948s-2.905,1.874-2.905,4.948
			c0,3.095,1.137,5.074,2.905,5.074S74.897,43.527,74.897,40.432z"/>
		<path d="M41.221,72.637l-2.947-5.39H36.21v5.39h-2.442V58.867h4.59c2.863,0,5.074,1.011,5.074,4.085
			c0,2.084-1.094,3.369-2.737,3.938l3.285,5.748H41.221z M36.21,65.31h1.896c1.895,0,2.926-0.801,2.926-2.358
			c0-1.579-1.031-2.126-2.926-2.126H36.21V65.31z"/>
		<path d="M51.026,58.867h8.802v2.064h-6.359v3.516h5.39v2.063h-5.39v4.063h6.569v2.063h-9.012V58.867z"/>
		<path d="M67.317,64.804h9.349v1.769h-9.349V64.804z"/>
	</g>
</g>
</svg>
