<?xml version="1.0" encoding="utf-8"?>
<!-- Generator: Adobe Illustrator 19.0.0, SVG Export Plug-In . SVG Version: 6.00 Build 0)  -->
<svg version="1.1" id="Layer_1" xmlns="http://www.w3.org/2000/svg" xmlns:xlink="http://www.w3.org/1999/xlink" x="0px" y="0px"
	 viewBox="-222 370 67 52" style="enable-background:new -222 370 67 52;" xml:space="preserve">
<style type="text/css">
	.st0{display:none;}
	.st1{display:inline;fill:#D1D3D4;}
	.st2{fill:#FFFFFF;}
</style>
<g id="Layer_2" class="st0">
	<rect x="-248" y="341" class="st1" width="114" height="111"/>
</g>
<g id="Layer_1_1_">
	<g>
		<path class="st2" d="M-212.1,383h9.3v1.8h-9.3V383z"/>
		<path class="st2" d="M-195.4,377.1h3.6c4.1,0,6.5,2.3,6.5,6.8c0,4.6-2.4,6.9-6.4,6.9h-3.7V377.1z M-191.9,388.9
			c2.6,0,4.1-1.6,4.1-5c0-3.4-1.5-4.8-4.1-4.8h-1v9.8H-191.9z"/>
		<path class="st2" d="M-179.2,383.9c0-4.4,2.2-7.1,5.4-7.1c3.2,0,5.4,2.6,5.4,7.1c0,4.5-2.2,7.2-5.4,7.2
			C-177,391.1-179.2,388.4-179.2,383.9z M-170.9,383.9c0-3.1-1.1-4.9-2.9-4.9c-1.8,0-2.9,1.9-2.9,4.9c0,3.1,1.1,5.1,2.9,5.1
			C-172,389-170.9,387-170.9,383.9z"/>
		<path class="st2" d="M-213.6,402.4h2.5l0.8,8c0.1,1.2,0.1,2.3,0.2,3.5h0.1c0.2-1.2,0.5-2.3,0.8-3.5l1.2-4.5h1.6l1.2,4.5
			c0.2,1.1,0.5,2.3,0.8,3.5h0.1c0.1-1.2,0.1-2.3,0.2-3.5l0.7-8h2.3l-1.9,13.8h-2.6l-1.2-5c-0.2-0.9-0.3-1.7-0.4-2.6h-0.1
			c-0.1,0.8-0.3,1.7-0.5,2.6l-1.2,5h-2.5L-213.6,402.4z"/>
		<path class="st2" d="M-195.4,402.4h2.5l3.7,7.7l1.3,2.9h0.1c-0.1-1.4-0.3-3.2-0.3-4.7v-6h2.3v13.8h-2.5l-3.7-7.8l-1.3-2.9h-0.1
			c0.1,1.5,0.3,3.1,0.3,4.7v6h-2.3V402.4z"/>
		<path class="st2" d="M-178.5,408.3h9.3v1.8h-9.3V408.3z"/>
	</g>
</g>
</svg>
