<?xml version="1.0" encoding="utf-8"?>
<!-- Generator: Adobe Illustrator 16.0.4, SVG Export Plug-In . SVG Version: 6.00 Build 0)  -->
<!DOCTYPE svg PUBLIC "-//W3C//DTD SVG 1.1//EN" "http://www.w3.org/Graphics/SVG/1.1/DTD/svg11.dtd">
<svg version="1.1" xmlns="http://www.w3.org/2000/svg" xmlns:xlink="http://www.w3.org/1999/xlink" x="0px" y="0px" width="114px"
	 height="111px" viewBox="0 0 114 111" enable-background="new 0 0 114 111" xml:space="preserve">
<g id="Layer_2" display="none">
</g>
<g id="Layer_1">
	<g>
		<path fill-rule="evenodd" clip-rule="evenodd" d="M45.486,81.345C34.274,76.688,24.917,62.602,30.14,46.616
			c4.92-15.058,20.958-23.073,36.087-17.881c15.22,5.224,22.951,21.763,17.237,36.831c-5.722,15.089-21.629,21.106-34.506,17.046
			c2.975-4.051,3.492-8.948,4.815-13.486c0.791,0.659,1.533,1.444,2.422,1.987c2.868,1.751,5.929,1.543,8.956,0.537
			c3.727-1.237,6.372-3.806,8.188-7.229c2.29-4.317,3.161-8.968,2.465-13.774c-0.811-5.599-4.138-9.456-9.103-12.004
			c-6.748-3.464-18.671-2.539-24.769,5.04c-3.97,4.934-5.151,10.39-3.033,16.429c0.803,2.288,2.297,4.043,4.56,5.053
			c0.95,0.425,1.34,0.236,1.627-0.757c0.041-0.143,0.084-0.283,0.119-0.427c0.58-2.403,0.813-2.21-0.604-4.277
			c-1.557-2.271-1.466-4.906-0.936-7.481c1.229-5.964,6.014-10.095,12.11-10.604c1.879-0.155,3.734-0.072,5.552,0.412
			c4.468,1.192,7.281,4.4,7.673,9.169c0.359,4.365-0.397,8.578-2.749,12.379c-1.233,1.994-2.862,3.479-5.301,3.846
			c-2.49,0.377-4.811-0.965-5.297-3.242c-0.171-0.805-0.1-1.727,0.104-2.535c0.671-2.663,1.489-5.289,2.17-7.951
			c0.196-0.768,0.215-1.613,0.146-2.408c-0.127-1.481-0.764-2.723-2.228-3.292c-1.567-0.608-3.06-0.322-4.354,0.735
			c-1.68,1.373-2.424,3.242-2.585,5.353c-0.136,1.78,0.011,3.533,0.732,5.205c0.094,0.218,0.059,0.523,0.002,0.769
			c-1.193,5.115-2.47,10.213-3.564,15.35C45.667,77.334,45.672,79.351,45.486,81.345z"/>
	</g>
</g>
</svg>
