<?xml version="1.0" encoding="utf-8"?>
<!-- Generator: Adobe Illustrator 16.0.4, SVG Export Plug-In . SVG Version: 6.00 Build 0)  -->
<!DOCTYPE svg PUBLIC "-//W3C//DTD SVG 1.1//EN" "http://www.w3.org/Graphics/SVG/1.1/DTD/svg11.dtd">
<svg version="1.1" xmlns="http://www.w3.org/2000/svg" xmlns:xlink="http://www.w3.org/1999/xlink" x="0px" y="0px" width="256px"
	 height="111px" viewBox="0 0 256 111" enable-background="new 0 0 256 111" xml:space="preserve">
<g id="Layer_2" display="none">
</g>
<g id="Layer_1">
	<g>
		<path fill="#231F20" d="M33.616,56.849c-0.396,0.396-0.595,0.859-0.727,1.322c-0.066,0.198-0.199,0.396-0.265,0.595
			c-0.066,0-0.132,0.065-0.132,0.132c0.066,0.595-0.462,1.058-0.528,1.652c-0.066,0.132-0.132,0.265-0.132,0.396
			c-0.198,0.463-0.331,0.925-0.462,1.388c-0.132,0.265-0.265,0.528-0.396,0.793c-0.132,0.198-0.265,0.396-0.397,0.528
			c-0.132,0.331-0.198,0.661,0,0.992c-0.462,0.198-0.462,0.528-0.396,0.925c0.066,0.33,0.066,0.727-0.198,0.991
			c-0.198,0.198-0.33,0.528-0.462,0.793c0.198,0.463,0.198,0.463-0.264,0.661c-0.066,0.198,0,0.396-0.132,0.595
			c-0.066,0.198-0.264,0.33-0.396,0.528c0.396,0.198,0.396,0.463,0.198,0.859c-0.132,0.463-0.198,0.991-0.198,1.52
			c-0.066,0.463-0.265,0.926-0.066,1.454c0.066,0.066,0.066,0.133,0,0.133c-0.397,0.727-0.066,1.453-0.066,2.246
			c0,0.133-0.066,0.331-0.066,0.595c0.198,0.133,0.396,0.396,0.661,0.661c-0.33,0.198-0.661,0.331-0.991,0.529
			c-0.198,0.198-0.396,0.462-0.859,0.528c-0.066-0.198-0.198-0.396-0.265-0.595c-0.132-0.793-0.264-1.586-0.264-2.379
			c0.066-0.595,0.264-1.189,0.132-1.784c-0.132-0.265,0-0.661,0-0.992c0.066-0.33,0.132-0.66,0.132-1.057
			c0-1.189,0.463-2.379,0.463-3.569c0-0.793,0.198-1.52,0.396-2.312c0.066-0.265,0.066-0.528,0.066-0.793
			c0.066-0.793,0.132-1.521,0.396-2.247c0.198-0.661,0.198-1.388,0.331-2.049c0.132-1.058,0.331-2.114,0.529-3.172
			c0.066-0.595,0-1.123,0.066-1.719c0.198-1.189,0.264-2.444,0.661-3.634c0.066-0.265,0.066-0.463,0.132-0.728
			c0.066-0.595,0.198-1.189,0.331-1.851c0.132-0.925,0.33-1.916,0.462-2.842c0-0.132,0.066-0.264,0.066-0.396
			c0.198-0.858,0.396-1.651,0.595-2.511c0.264-1.189,0.595-2.313,0.859-3.503c0.132-0.462,0.264-0.925,0.396-1.388
			c-0.661,0.132-1.255,0.396-1.85,0.066c-0.595-0.265-1.388-0.463-1.718-1.058c0-0.066,0-0.132,0-0.198
			c0.925-0.859,1.85-1.718,2.974-2.247c0.529-0.264,1.124-0.528,1.652-0.859c0.132-0.065,0.33-0.264,0.396-0.396
			c0.198-0.595,0.33-1.189,0.528-1.784c0.066-0.198,0.198-0.33,0.397-0.33c0.859-0.198,1.784-0.33,2.709,0
			c0.396,0.198,0.793,0.132,1.189,0c2.115-0.793,4.295-1.256,6.542-1.189c1.189,0,2.445,0.066,3.635,0.198
			c1.586,0.198,2.709,1.123,3.502,2.379c0.462,0.859,0.462,1.719,0.264,2.577c-0.198,0.793-0.528,1.586-0.925,2.247
			c-0.066,0.132-0.066,0.265-0.199,0.33c-0.727,0.661-0.925,1.587-1.321,2.38c-0.198,0.33-0.463,0.595-0.661,0.925
			c-0.396,0.595-0.727,1.256-1.189,1.851c-0.595,0.727-1.256,1.454-1.917,2.181c-0.066,0.132-0.198,0.265-0.264,0.396
			c-0.396,0.859-0.925,1.586-1.652,2.181c-0.132,0.133-0.198,0.198-0.264,0.265c-0.396,0.661-0.727,1.321-1.19,1.982
			c-0.264,0.396-0.528,0.793-0.859,1.124c-0.529,0.66-1.322,1.057-1.851,1.651c-0.264,0.331-0.595,0.661-0.925,0.991
			c-0.066,0.066-0.198,0.133-0.265,0.133c-0.661,0.132-0.991,0.66-1.454,0.991c-0.331,0.198-0.661,0.33-0.991,0.528
			c-0.529,0.265-0.992,0.529-1.52,0.793c-0.198,0.133-0.463,0.198-0.661,0.265s-0.331,0.132-0.462,0.198
			C34.079,56.981,34.079,57.047,33.616,56.849z M35.401,50.835c0.462-0.066,0.462-0.132,0.727-0.396
			c0.132-0.198,0.265-0.33,0.463-0.463c0.396-0.33,0.859-0.66,1.189-0.991c0.396-0.33,0.661-0.793,0.991-1.123
			c0.396-0.396,0.859-0.793,1.322-1.189c0.198-0.198,0.396-0.396,0.462-0.595c0.066-0.331,0.265-0.529,0.595-0.595
			c0.331-0.133,0.529-0.265,0.595-0.529c0-0.33,0.198-0.462,0.528-0.595c0.396-0.065,0.463-0.396,0.661-0.66
			c0.066-0.133,0.132-0.265,0.198-0.396c0.661-0.728,1.388-1.521,2.048-2.313c1.19-1.454,2.115-3.04,2.842-4.758
			c0.331-0.793,0.595-1.586,0.793-2.445c0.132-0.331,0-0.396-0.264-0.396c-0.661,0-1.322,0-1.917,0.132
			c-0.793,0.132-1.52,0.33-2.313,0.595c-0.661,0.198-1.388,0.396-1.982,0.728c-0.925,0.462-1.851,0.727-2.776,0.925
			c-0.661,0.198-0.991,0.463-1.057,1.058c-0.066,0.595-0.132,1.255-0.265,1.916c-0.264,1.719-0.595,3.503-0.925,5.221
			c-0.132,0.529-0.331,0.991-0.529,1.521c-0.198,0.793-0.331,1.52-0.529,2.312c-0.264,0.926-0.529,1.784-0.859,2.71
			C35.401,50.637,35.401,50.703,35.401,50.835z"/>
		<path fill="#231F20" d="M60.25,77.468c-0.066,0.463-0.132,0.991-0.198,1.454c-0.066,0.132-0.066,0.264-0.132,0.264
			c-0.595,0.198-0.661,0.859-0.925,1.388c-0.066,0-0.132,0.066-0.264,0.133c-0.066-0.198-0.132-0.331-0.132-0.463
			c-0.595-3.04-1.124-6.014-1.189-9.12c0-0.462-0.066-0.925-0.066-1.388c-0.198-2.775,0-5.551,0.066-8.326
			c0.066-0.661,0.066-1.322,0.066-2.049c0-0.529-0.33-0.926-0.727-1.058c-0.793-0.198-1.454,0.198-2.115,0.595
			c-0.463,0.33-0.925,0.595-1.454,0.661c-0.331,0-0.462,0.198-0.595,0.595c-0.396,1.189-0.859,2.379-1.256,3.568
			c-0.264,0.859-0.528,1.784-0.727,2.71c-0.529,1.784-1.058,3.568-1.917,5.154c-0.396,0.793-1.058,1.454-1.785,1.917
			c-0.396,0.198-0.727,0.462-1.123,0.66c-0.265,0.198-0.595,0.331-0.925,0.331c-0.396,0.065-0.595-0.198-0.529-0.661
			c0.396-2.644,1.057-5.154,1.917-7.6c0.396-1.124,0.859-2.181,1.256-3.305c0.264-0.859,0.462-1.718,0.727-2.577
			c0.661-1.982,1.388-4.031,2.049-6.014c0.462-1.189,0.859-2.379,1.255-3.569c0.397-1.123,0.859-2.181,1.256-3.237
			c0.132-0.331,0.198-0.661,0.331-1.058c0-0.133,0.066-0.265,0.132-0.396c0.529-1.586,1.058-3.172,1.652-4.759
			c0.132-0.396,0.331-0.858,0.462-1.255c0.396-1.058,0.727-2.049,1.124-3.106c0.595-1.718,1.256-3.37,1.785-5.022
			c0.396-0.991,0.595-1.982,0.991-3.106c0.132-0.132,0.396-0.33,0.727-0.595c0.793,0.396,1.586,0.793,2.379,1.189
			c0.529,0.265,1.124,0.529,1.586,0.859c1.454,0.859,2.247,2.247,2.644,4.031c0.132,0.595,0.198,1.256,0.066,1.784
			c-0.198,0.926-0.132,1.784-0.198,2.644c-0.066,1.189-0.132,2.379-0.264,3.568c-0.132,2.182-0.331,4.362-0.529,6.543
			c-0.066,0.727-0.198,1.388-0.264,2.114c0,0.331,0.066,0.728,0,1.058c0,0.198,0,0.396-0.066,0.595c0,0.133-0.132,0.265-0.132,0.463
			c-0.132,0.991-0.198,1.982-0.265,2.974c-0.066,0.331-0.066,0.728-0.132,1.058c-0.198,2.049-0.331,4.163-0.595,6.212
			c-0.198,1.189-0.462,2.379-0.793,3.503c-0.396,1.189-0.462,2.511-0.727,3.7c-0.066,0.331-0.132,0.661-0.198,0.991
			c-0.331,1.389-0.661,2.71-1.058,4.098c-0.132,0.396-0.198,0.793-0.727,0.926C60.383,76.608,60.383,77.138,60.25,77.468
			c-0.066-0.132-0.066-0.198-0.132-0.33l-0.066,0.065C60.118,77.27,60.185,77.401,60.25,77.468z M58.466,42.046
			c-0.066-0.066-0.132-0.066-0.198-0.066c-1.586,4.891-3.238,9.781-4.362,14.936c0.198,0,0.264,0,0.331-0.066
			c0.859-0.33,1.784-0.727,2.643-1.057c0.793-0.331,0.793-0.331,0.859-1.454c0,0,0-0.066,0-0.133
			c0.198-3.172,0.396-6.344,0.595-9.516C58.4,43.764,58.4,42.905,58.466,42.046z"/>
		<path fill="#231F20" d="M88.735,82.027c-0.396-0.065-0.661-0.198-1.058-0.264c-0.132-0.331-0.198-0.793-0.33-1.322
			c0.198,0.066,0.33,0,0.528,0c-0.33-0.396-0.462-0.727-0.727-1.058c-0.066-0.065-0.132-0.198-0.132-0.264
			c0-0.396-0.132-0.728-0.462-0.991c-0.331,0.595-0.463,1.189-0.198,1.916c0.132,0.265,0.132,0.463,0.198,0.728
			c0,0.132-0.132,0.33-0.265,0.528c-0.066,0-0.132,0-0.132,0c-0.066-0.595-0.132-1.189-0.199-1.719
			c-0.066-0.065,0-0.132-0.066-0.132c-0.264-0.463-0.661-0.925-1.322-1.189c0,0.132-0.066,0.265-0.066,0.396
			c0,0.463,0.066,0.925,0.066,1.321c0.066,0.331-0.066,0.529-0.264,0.728c-0.132-0.133-0.265-0.198-0.463-0.463
			c-0.132,0.132-0.198,0.265-0.33,0.396c-0.396-0.661-0.727-1.256-0.925-2.114c0,0.065-0.066,0.132-0.066,0.198
			c-0.066,0.065-0.198,0.132-0.265,0.198c-0.132-0.198-0.396-0.331-0.727-0.133c0.265,0.198,0.595,0.463,0.925,0.661
			c-0.396,0.198-0.793,0.066-1.057,0.33c-0.198,0.265-0.396,0.396-0.331,0.728c0,0.528-0.066,0.528-0.661,0.661
			c-0.066-0.728-0.066-1.322-0.198-1.917c-0.132-0.925-0.331-1.851-0.463-2.842c-0.331-1.784-0.661-3.635-1.057-5.485
			c-0.198-1.52-0.463-3.105-0.727-4.758c-0.331-2.181-1.058-4.163-1.851-6.212c0,0-0.066-0.066-0.132-0.132
			c-0.331,0.396-0.331,0.858-0.397,1.388c-0.132,0.66-0.198,1.321-0.33,1.982c0,0.396-0.132,0.859-0.198,1.321
			c-0.132,1.189-0.396,2.313-0.529,3.503c-0.132,0.793-0.132,1.586-0.198,2.445c-0.132,1.123-0.198,2.312-0.595,3.437
			c-0.264,0.595-0.331,1.321-0.529,1.982c-0.198,0.462-0.264,0.991-0.462,1.321c-0.132,0.265-0.331,0.529-0.727,0.595
			c-0.331,0.066-0.727,0.133-0.793,0.595c-0.463,0.331-0.463,0.991-1.124,1.124c-0.132-0.133-0.331-0.331-0.462-0.463
			c-0.331,0.265-0.595,0.265-0.992,0.265c-0.462-0.066-0.727-0.198-0.793-0.529c-0.066-0.33-0.198-0.595-0.132-0.858
			c0.066-1.058,0.198-2.049,0.33-3.04c0.066-0.728,0.132-1.454,0.265-2.247c0.132-0.793,0.396-1.586,0.528-2.379
			c0.132-0.793,0.265-1.719,0.529-2.644c0.198-1.058,0.529-2.049,0.727-3.106c0.066-0.264,0.132-0.595,0.132-0.859
			c0.132-0.396,0.198-0.727,0.33-1.123c0.066-0.33,0.198-0.595,0.265-0.925c0.198-0.595,0.33-1.189,0.528-1.784
			c0.199-0.661,0.397-1.256,0.463-1.917c0-0.661,0.198-1.321,0.396-1.982c0.132-0.793,0.331-1.454,0.595-2.247
			c0-0.066,0-0.132,0-0.198c0-0.463,0.198-0.925,0.529-1.321c0-0.133,0-0.265-0.066-0.463c0,0,0-0.198,0.066-0.265
			c0.198-0.991,0.462-2.049,0.661-3.105c0.066-0.198,0.265-0.265,0.331-0.463c0.066-0.265,0.264-0.528,0.198-0.727
			c-0.066-0.463,0.066-0.794,0.198-1.19c0.132-0.595,0.198-1.123,0.529-1.586c0.132-0.33,0.198-0.66,0.264-0.991
			c0.132-0.793,0.331-1.454,0.529-2.247c0.198-0.727,0.264-1.453,0.529-2.114c0.528-1.719,0.925-3.437,1.718-5.089
			c0.132-0.198,0.264-0.528,0.33-0.793c0-0.198,0-0.396,0-0.661c1.718-0.793,5.485-1.255,6.741-1.453
			c1.058-0.133,2.049-0.198,3.04,0.132c0.859,0.198,1.718,0.265,2.511,0.528c1.058,0.463,2.115,0.926,2.908,1.784
			c0.727,0.661,0.925,1.389,0.66,2.247c-0.462,1.388-1.255,2.512-2.114,3.701c-0.33,0.528-0.727,0.991-0.991,1.454
			c-0.529,0.793-1.058,1.586-1.586,2.445c-0.396,0.528-0.859,1.057-1.255,1.651c-0.132,0.133-0.198,0.265-0.265,0.396
			c-0.198,0.396-0.396,0.793-0.859,1.058c-0.066,0-0.132,0.066-0.264,0.132c-0.595,0.926-1.52,1.587-2.313,2.38
			c-0.066,0.065-0.132,0.132-0.132,0.198c-0.396,0.66-0.859,0.925-1.652,1.453c-1.123,0.728-1.255,0.794-1.454,0.992
			c-0.132,0.264-0.331,0.396-1.454,1.123c-0.925,0.595-0.727,0.528-0.396,1.189c0.331,0.925,0.727,1.851,1.189,2.775
			c0.198,0.595,0.595,1.189,0.992,1.719c0.33,0.793,0.793,1.652,1.189,2.511c0.396,0.529,0.661,0.991,0.925,1.454
			c0.529,1.058,0.727,1.851,1.256,2.842c0.462,0.991,0.859,2.049,1.256,2.974c0.132,0.396,0.198,0.793,0.198,1.124
			c0.396,1.52,0.793,3.04,0.925,4.56c0.132,1.388,0.265,2.775,0.396,4.098c0,0.132,0.066,0.198,0.066,0.264
			c0.264,0.595,0.264,1.124,0,1.652c-0.066,0.132,0.132,0.396,0.198,0.595c0.132,0.463,0.331,0.859,0.529,1.388
			C88.868,81.896,88.735,81.962,88.735,82.027z M71.883,68.679c-0.066,0-0.132-0.133-0.132-0.133c-0.066,0-0.132,0.066-0.198,0.133
			c0.066,0.065,0.132,0.132,0.198,0.132C71.817,68.877,71.817,68.744,71.883,68.679z M74.329,57.973c0-0.265,0-0.396,0.066-0.661
			C74.064,57.576,73.998,57.708,74.329,57.973z M77.699,58.236c-0.066,0.133-0.265,0.331-0.066,0.595
			C77.831,58.633,77.831,58.435,77.699,58.236z M78.36,61.607c0.066,0.132,0.462,0.132,0.331,0.462l0.066,0.066
			c0.198,0.132,0.331,0.265,0.396,0.463c0.198,0.462,0.331,0.925,0.462,1.454c0.066,0.264-0.066,0.595,0,0.925
			c0,0.198,0,0.463,0.066,0.727c0.066,0.198,0.198,0.265,0.132,0.396c0,0.331,0.199,0.595,0.463,0.595
			c0,0.463-0.066,0.859,0.066,1.256c0.066,0.396,0.396,0.661,0.595,1.124c-0.066-0.066-0.132,0.065-0.264,0.198
			c0.066,0,0.066,0.065,0.132,0.065c0.198,0,0.396-0.065,0.661-0.198c-0.198-0.264-0.198-0.462,0-0.595
			c-0.132-0.33-0.396-0.528-0.462-0.793c0-0.463,0.132-0.793-0.265-1.123c-0.066,0,0-0.265,0-0.396
			c0.066-0.265,0.066-0.529-0.198-0.793c-0.066-0.133-0.264-0.396-0.132-0.661c0.066-0.066,0-0.33-0.066-0.463
			c-0.198-0.396-0.462-0.859-0.33-1.321c0.066-0.198,0.066-0.396-0.066-0.529c-0.198-0.33-0.264-0.528,0-0.727
			c-0.661-0.528-1.124-1.123-1.124-1.916c0-0.463-0.198-0.859-0.727-0.992c0,0-0.066,0.066-0.132,0.133
			c0,0.462,0.066,0.925,0.396,1.256C78.756,60.748,78.756,61.145,78.36,61.607z M84.902,42.971c0.066-0.132,0-0.396,0.132-0.528
			c0.264-0.331,0.528-0.661,0.859-0.793c0.595-0.265,0.727-0.859,1.256-1.058c0.066,0,0.066-0.066,0.066-0.132
			c0.132-0.595,0.661-0.926,1.057-1.454c1.124-1.322,2.049-2.842,2.71-4.428c0.132-0.396,0.066-0.529-0.396-0.595
			c-0.463-0.066-0.925,0-1.388-0.066c-1.652-0.132-3.304,0.132-4.89,0.595c-0.595,0.198-3.569,0.529-3.569,1.124
			c-0.066,0.991-0.198,2.048-0.462,3.04c-0.198,1.189-0.661,2.379-0.925,3.568c-0.198,1.058-0.859,6.146-0.991,7.203
			c-0.066,0.33,1.851-1.916,2.181-1.916c0.066-0.396,0.265-0.728,2.115-2.512c0.066-0.066,0.132-0.066,0.132-0.066
			C83.382,44.16,84.242,43.698,84.902,42.971z M78.889,63.061c0.066,0,0.066,0,0.132,0c-0.066-0.065-0.066-0.065-0.066-0.132
			c-0.066,0-0.066,0.066-0.132,0.066C78.889,63.061,78.889,63.061,78.889,63.061z M81.003,70.198c0.066,0,0.066-0.066,0.132-0.066
			c-0.066-0.065-0.066-0.132-0.066-0.264c-0.066,0.065-0.066,0.065-0.132,0.065C81.003,70,81.003,70.066,81.003,70.198z
			 M81.333,64.118c0.066,0,0.132-0.065,0.132-0.065c0-0.198-0.066-0.397-0.132-0.596C81.268,63.722,81.202,63.92,81.333,64.118z
			 M81.995,72.512c0,0,0-0.066,0-0.133c-0.066,0.066-0.132,0.066-0.198,0.133c0.066,0.065,0.066,0.065,0.132,0.132
			C81.929,72.577,81.995,72.577,81.995,72.512z M82.259,73.833c0.066-0.33-0.066-0.528-0.198-0.793
			C81.796,73.37,81.929,73.568,82.259,73.833z M82.061,77.27c0-0.066-0.066-0.066-0.066-0.066c-0.066-0.065-0.066,0-0.066,0
			l0.066,0.133C82.061,77.336,82.061,77.27,82.061,77.27z M82.259,65.704c-0.132,0.066-0.198,0.133-0.198,0.198
			c0.066,0.066,0.132,0.133,0.198,0.133c0.066,0,0.132-0.066,0.132-0.133C82.391,65.837,82.325,65.771,82.259,65.704z
			 M82.523,67.687c-0.066,0-0.132-0.065-0.132-0.065c0,0.065,0,0.198,0,0.33c0,0,0.066,0.066,0.132,0.066
			C82.523,67.885,82.523,67.753,82.523,67.687z M82.589,77.336c0-0.066,0-0.066,0-0.133c-0.066,0.066-0.132,0.066-0.132,0.066
			c-0.066,0.066,0,0.066,0,0.132C82.523,77.401,82.589,77.336,82.589,77.336z M82.655,78.327l0.066-0.066
			c-0.066-0.066-0.066-0.198-0.132-0.198s-0.132,0.066-0.132,0.066C82.523,78.194,82.589,78.194,82.655,78.327z M83.118,78.327
			c-0.198,0.198-0.198,0.264,0.066,0.462C83.316,78.591,83.382,78.525,83.118,78.327z M84.374,72.775
			c-0.396-0.065-0.595-0.065-0.859-0.132c0.198,0.33,0.264,0.528,0.595,0.463C84.175,73.106,84.242,72.908,84.374,72.775z
			 M84.902,77.996c0.396-0.528,0.066-0.858,0.132-1.255c0-0.265-0.396-0.596-0.529-0.859c-0.066,0-0.132,0-0.132,0
			c-0.066,0.198-0.198,0.396-0.132,0.528C84.374,76.939,84.506,77.468,84.902,77.996z M84.308,75.419
			c0.132,0.198,0.264,0.066,0.462-0.066C84.572,75.221,84.374,75.221,84.308,75.419z M86.026,76.543l0.066-0.066
			c0-0.066-0.066-0.066-0.066-0.066c-0.066,0-0.066,0.066-0.132,0.066C85.959,76.543,85.959,76.543,86.026,76.543z M86.422,76.939
			c-0.396,0.198-0.264,0.33-0.198,0.528c0,0,0.066,0,0.198,0C86.422,77.336,86.422,77.203,86.422,76.939z M86.753,77.666h0.066
			c0.066-0.066,0.066-0.132,0-0.198c0-0.066-0.066,0-0.066,0C86.753,77.534,86.753,77.6,86.753,77.666z"/>
		<path fill="#231F20" d="M101.559,31.406c0.595-0.066,0.991,0,1.321,0.33c0.463,0.396,0.926,0.793,1.389,1.256
			c0.462,0.595,0.595,1.256,0.528,2.114c-0.265,1.851-0.727,3.635-1.256,5.419c-0.463,1.719-0.925,3.503-1.321,5.354
			c-0.198,1.058-0.463,2.114-0.793,3.172c0,0.198-0.133,0.33-0.198,0.463c-0.066,0.132-0.133,0.33-0.133,0.528
			c0.066,1.124-0.33,2.181-0.595,3.305c-0.396,1.321-0.793,2.709-1.123,4.031c-0.396,1.321-0.859,2.644-1.189,4.031
			c-0.265,0.858-0.463,1.784-0.661,2.644c-0.198,0.727-0.33,1.388-0.463,2.114c-0.33,1.52-0.462,3.04-0.528,4.626
			c-0.066,0.859-0.132,1.719-0.198,2.577c-0.066,0.728,0,1.454-0.132,2.115c-0.133,0.925-0.396,1.784-0.595,2.709
			c-0.066,0.331-0.133,0.661-0.198,0.991c-0.463-0.065-0.859-0.065-1.322-0.132c0.066,0.198,0.132,0.265,0.198,0.528
			c-0.198,0-0.396,0-0.528,0c-0.595-0.132-0.661-0.065-0.661,0.529c0,0.132,0,0.198,0,0.33c-0.265,0-0.463-0.198-0.528-0.396
			c-0.133-0.463-0.463-0.661-0.926-0.859c-0.661-0.264-0.727-0.462-0.595-1.189c0.132-1.255,0.265-2.511,0.463-3.767
			c0.264-1.851,0.33-3.767,0.462-5.617c0.066-0.265,0.132-0.528,0.199-0.728c0-0.264,0.065-0.528,0.065-0.793
			c0.133-0.793,0.198-1.52,0.265-2.312c0.066-0.396,0.198-0.859,0.198-1.322c0.066-0.793,0.132-1.52,0.396-2.246
			c0.198-0.595,0.265-1.322,0.33-1.917c0.265-1.321,0.529-2.577,0.793-3.833c0.198-0.925,0.331-1.784,0.529-2.709
			c0.463-1.851,0.859-3.768,1.321-5.684c0.331-1.586,0.728-3.238,1.189-4.824c0.331-1.256,0.793-2.512,1.256-3.767
			c0.265-0.661,0.463-1.389,0.727-2.049C99.973,34.776,100.766,33.058,101.559,31.406z"/>
		<path fill="#231F20" d="M116.033,77.864c-0.463-0.066-0.925-0.132-1.454-0.198c-0.065,0.198-0.198,0.33-0.33,0.595
			c-0.463-0.066-0.925-0.132-1.454-0.198c0,0.396,0,0.661,0,0.991c-0.132,0.528-0.661,0.793-1.123,0.595
			c-0.198-0.132-0.463-0.265-0.661-0.33c-0.396-0.066-0.661-0.198-0.859-0.595c-0.132-0.198-0.462-0.331-0.727-0.463
			c0.265-0.396,0.595-0.859,1.123-0.859c0.265-0.065,0.529-0.198,0.529-0.462c0-0.198-0.198-0.331-0.331-0.529
			c-0.065-0.066-0.132-0.066-0.264-0.198c-0.331,0.661-0.793,0.396-1.256,0.331c-0.132,0.132-0.198,0.33-0.33,0.33
			c-0.331,0.132-0.529,0.396-0.728,0.661c-0.396,0.528-0.793,0.528-1.189,0c-0.33-0.396-0.528-0.859-0.396-1.389
			c0.661-3.039,1.321-6.014,1.982-8.987c0.331-1.652,0.661-3.304,0.926-4.891c0.528-2.775,0.991-5.484,1.453-8.261
			c0.066-0.264,0-0.528-0.065-0.793c-0.133-0.528-0.133-1.057,0.132-1.453c0.528-0.728,0.661-1.587,0.859-2.445
			c0.595-3.238,1.321-6.345,2.114-9.517c0.133-0.528,0.133-0.661-0.33-0.991c-0.793-0.529-1.189-1.189-1.058-2.247
			c0-0.33-0.066-0.595-0.33-0.793c-0.066-0.132-0.198-0.265-0.331-0.396c0.198-0.33,0.331-0.595,0.595-0.793
			c1.124-1.256,2.512-2.181,4.031-2.842c0.396-0.198,0.794-0.396,0.992-0.859c0.198-0.33,0.396-0.396,0.727-0.264
			c0.265,0.198,0.528,0.065,0.793,0c1.718-0.728,3.503-1.124,5.353-1.389c1.189-0.198,2.445-0.264,3.635-0.198
			c0.793,0.066,1.652,0.198,2.38,0.595c0.858,0.529,1.718,0.992,2.577,1.587c0.33,0.132,0.462,0.528,0.727,0.793
			c0.066,0.132,0.132,0.33,0.265,0.462c0.793,1.124,0.859,2.313,0.528,3.635c-0.198,0.463-0.396,0.926-0.595,1.388
			c-0.265,0.661-0.463,1.256-0.793,1.851c-0.396,0.728-0.793,1.454-1.256,2.115c-0.396,0.528-0.727,0.991-1.123,1.454
			c-1.124,1.321-2.247,2.643-3.568,3.767c-0.661,0.463-1.256,0.925-1.917,1.454c-0.132,0.132-0.33,0.33-0.528,0.595
			c0.396,0.132,0.66,0.198,0.925,0.264c0.859,0.265,1.719,0.661,2.445,1.256c0.925,0.793,1.586,1.851,2.049,3.04
			c0.33,0.925,0.528,1.916,0.463,3.04c-0.133,1.586-0.066,3.238-0.133,4.891c-0.132,1.982-0.528,3.833-1.586,5.551
			c-0.396,0.727-0.925,1.454-1.388,2.181c-0.925,1.322-2.115,2.313-3.106,3.635c-0.198,0.198-0.396,0.331-0.595,0.529
			c-1.651,1.388-3.502,2.444-5.286,3.568c-0.595,0.33-1.124,0.859-1.917,0.727C116.496,77.336,116.231,77.666,116.033,77.864z
			 M111.341,75.089c0,0.065-0.065,0.132-0.065,0.198c0,0,0.065,0.065,0.065,0.132c0.066-0.066,0.133-0.132,0.133-0.132
			C111.474,75.221,111.407,75.154,111.341,75.089z M111.539,77.996c-0.065,0.066-0.132,0.066-0.198,0.066
			c0,0.066,0.066,0.132,0.066,0.198c0.066,0,0.132-0.066,0.198-0.066C111.539,78.129,111.539,78.062,111.539,77.996z
			 M113.919,74.891c0.727-0.463,1.388-0.926,2.048-1.454c1.189-0.859,2.313-1.719,3.173-2.908c0.33-0.528,0.727-0.991,1.189-1.321
			c0.793-0.528,1.058-1.586,1.916-2.049c0.265-0.595,0.661-1.058,1.058-1.52c0.859-1.124,1.652-2.38,2.512-3.569
			c0.66-0.991,1.388-1.982,1.718-3.172c0.528-1.784,0.727-3.635,0.727-5.485c-0.065-0.66-0.33-1.057-0.858-1.321
			c-0.133-0.066-0.331-0.132-0.463-0.198c-1.719-0.463-3.503-0.595-5.353-0.595c-1.19,0-2.049,0.859-3.04,1.321
			c-0.066,0.066-0.066,0.066-0.066,0.133c-0.132,0.396-0.396,0.396-0.727,0.396c-0.265,0.065-0.529,0.065-0.661,0.396
			c-0.265,0.793-0.529,1.586-0.793,2.379c-0.066,0.265-0.066,0.528-0.133,0.793c-0.132,1.058-0.33,2.114-0.528,3.106
			c-0.198,1.057-0.463,2.048-0.661,3.039c-0.065,0.331-0.264,0.728-0.33,1.124c-0.33,1.321-0.661,2.709-0.991,4.031
			c-0.265,0.925-0.528,1.851-0.793,2.775c-0.066,0.265-0.066,0.528-0.198,0.661c-0.396,0.462-0.396,0.859-0.396,1.454
			c0,0.66-0.133,1.388-0.331,2.114c-0.198,0.528-0.198,0.991,0.265,1.321c0,0.331-0.066,0.596-0.132,0.992
			c0.264-0.133,0.595-0.198,0.66-0.331c0.133-0.396,0.397-0.528,0.728-0.661c0.33-0.065,0.528-0.396,0.528-0.793
			C113.984,75.353,113.984,75.221,113.919,74.891z M115.042,77.468c-0.066-0.33-0.132-0.661-0.463-0.661
			c-0.198-0.065-0.33,0.066-0.264,0.396C114.514,77.27,114.777,77.401,115.042,77.468z M115.769,74.692
			c-0.065-0.066-0.132-0.133-0.132-0.133c-0.066,0-0.132,0.066-0.198,0.133c0,0,0.066,0.065,0.066,0.132
			C115.57,74.824,115.637,74.758,115.769,74.692z M116.165,73.899c0.595,0.198,0.728,0.132,0.926-0.529
			C116.76,73.503,116.496,73.701,116.165,73.899z M117.95,47.531c0.462-0.265,0.793-0.463,1.123-0.661
			c0.793-0.661,1.586-1.256,2.379-1.851c2.115-1.586,3.965-3.437,5.552-5.551c0.793-1.058,1.52-2.115,2.246-3.238
			c0.529-0.859,0.926-1.851,1.058-3.04c-0.396-0.066-0.793-0.133-1.123-0.133c-1.322,0-2.577,0-3.833,0.331
			c-0.463,0.132-0.926,0.198-1.322,0.396c-0.528,0.132-0.991,0.396-1.52,0.595c-0.727,0.33-1.454,0.793-2.049,1.454
			c-0.132,0.132-0.265,0.264-0.33,0.396c-0.396,1.388-0.859,2.709-1.124,4.097c-0.396,1.917-0.66,3.899-0.991,5.815
			C117.95,46.605,117.95,47.002,117.95,47.531z"/>
		<path fill="#231F20" d="M147.36,77.468c-0.066,0.463-0.132,0.991-0.198,1.454c-0.066,0.132-0.066,0.264-0.132,0.264
			c-0.595,0.198-0.661,0.859-0.926,1.388c-0.066,0-0.132,0.066-0.265,0.133c-0.065-0.198-0.132-0.331-0.132-0.463
			c-0.595-3.04-1.123-6.014-1.189-9.12c0-0.462-0.066-0.925-0.066-1.388c-0.198-2.775,0-5.551,0.066-8.326
			c0.066-0.661,0.066-1.322,0.066-2.049c0-0.529-0.331-0.926-0.728-1.058c-0.793-0.198-1.453,0.198-2.114,0.595
			c-0.463,0.33-0.926,0.595-1.454,0.661c-0.33,0-0.463,0.198-0.595,0.595c-0.396,1.189-0.859,2.379-1.256,3.568
			c-0.264,0.859-0.528,1.784-0.727,2.71c-0.529,1.784-1.058,3.568-1.917,5.154c-0.396,0.793-1.057,1.454-1.784,1.917
			c-0.396,0.198-0.727,0.462-1.123,0.66c-0.265,0.198-0.595,0.331-0.926,0.331c-0.396,0.065-0.595-0.198-0.528-0.661
			c0.396-2.644,1.058-5.154,1.916-7.6c0.397-1.124,0.859-2.181,1.256-3.305c0.265-0.859,0.463-1.718,0.728-2.577
			c0.66-1.982,1.388-4.031,2.048-6.014c0.463-1.189,0.859-2.379,1.256-3.569c0.396-1.123,0.859-2.181,1.256-3.237
			c0.132-0.331,0.198-0.661,0.33-1.058c0-0.133,0.066-0.265,0.133-0.396c0.528-1.586,1.057-3.172,1.652-4.759
			c0.132-0.396,0.33-0.858,0.462-1.255c0.396-1.058,0.728-2.049,1.124-3.106c0.595-1.718,1.255-3.37,1.784-5.022
			c0.396-0.991,0.595-1.982,0.991-3.106c0.132-0.132,0.396-0.33,0.727-0.595c0.793,0.396,1.586,0.793,2.379,1.189
			c0.529,0.265,1.124,0.529,1.587,0.859c1.453,0.859,2.246,2.247,2.643,4.031c0.133,0.595,0.198,1.256,0.066,1.784
			c-0.198,0.926-0.132,1.784-0.198,2.644c-0.066,1.189-0.132,2.379-0.265,3.568c-0.132,2.182-0.33,4.362-0.528,6.543
			c-0.066,0.727-0.198,1.388-0.265,2.114c0,0.331,0.066,0.728,0,1.058c0,0.198,0,0.396-0.065,0.595c0,0.133-0.133,0.265-0.133,0.463
			c-0.132,0.991-0.198,1.982-0.264,2.974c-0.066,0.331-0.066,0.728-0.133,1.058c-0.198,2.049-0.33,4.163-0.595,6.212
			c-0.198,1.189-0.462,2.379-0.793,3.503c-0.396,1.189-0.463,2.511-0.727,3.7c-0.066,0.331-0.133,0.661-0.198,0.991
			c-0.331,1.389-0.661,2.71-1.058,4.098c-0.132,0.396-0.198,0.793-0.727,0.926C147.492,76.608,147.492,77.138,147.36,77.468
			c-0.066-0.132-0.066-0.198-0.132-0.33l-0.066,0.065C147.229,77.27,147.294,77.401,147.36,77.468z M145.576,42.046
			c-0.066-0.066-0.133-0.066-0.198-0.066c-1.586,4.891-3.238,9.781-4.362,14.936c0.198,0,0.265,0,0.331-0.066
			c0.859-0.33,1.784-0.727,2.644-1.057c0.793-0.331,0.793-0.331,0.858-1.454c0,0,0-0.066,0-0.133
			c0.198-3.172,0.396-6.344,0.595-9.516C145.51,43.764,145.51,42.905,145.576,42.046z"/>
		<path fill="#231F20" d="M184.173,37.684c-0.331,1.521-0.661,3.106-0.926,4.692c-0.595,2.445-1.123,4.891-1.652,7.27
			c-0.264,1.388-0.595,2.775-0.858,4.163c-0.198,1.124-0.331,2.247-0.529,3.371c-0.396,1.916-0.859,3.767-1.321,5.617
			c-0.066,0.264-0.133,0.595-0.133,0.858c-0.264,1.322-0.528,2.71-0.793,3.966c-0.132,0.661-0.264,1.256-0.396,1.851
			c-0.065,0.33-0.198,0.595-0.132,0.925c0.132,1.123-0.132,2.181-0.463,3.305c-0.264,0.462-0.33,1.057-0.528,1.651
			c-0.066,0.265-0.132,0.463-0.33,0.661c0,0.132-0.066,0.198-0.066,0.33c0.066,0.661-0.198,1.322-0.198,2.115
			c0,0.33-0.132,0.661-0.265,0.991c-0.198,0.463-0.463,0.528-0.727,0.198c-0.198-0.198-0.331-0.396-0.529-0.595
			c-0.264,0.33-0.396,0.595-0.66,0.727c-0.463,0.595-0.859,0.529-1.322,0c-0.198-0.132-0.264-0.264-0.462-0.33
			c-0.265-0.198-0.463-0.463-0.661-0.727c-0.661-0.926-0.728-1.982-0.991-2.975c-0.198-1.057-0.331-2.181-0.529-3.237
			c-0.198-1.256-0.264-2.512-0.264-3.833c0-1.256,0.065-2.578-0.265-3.899c-0.198-0.528-0.132-1.058-0.265-1.586
			c-0.198-0.991-0.264-1.982-0.264-2.974c0.065-0.728,0.065-1.521,0-2.247c0.065-0.133,0-0.396-0.066-0.661
			c-0.132,0.265-0.198,0.396-0.265,0.528c-0.198,0.728-0.33,1.521-0.528,2.247c-0.396,1.322-0.727,2.775-1.189,4.164
			c-0.331,0.991-0.529,2.181-0.926,3.304c-0.132,0.198-0.132,0.463-0.264,0.728c-0.066,0.132-0.265,0.264-0.463,0.528
			c0,0,0.132,0.132,0.198,0.198c-0.33,1.52-0.661,3.04-0.991,4.494c-0.198,0.991-0.396,1.916-0.595,2.907
			c-0.066,0.396-0.265,0.793-0.528,1.189c-0.331-0.132-0.529-0.198-0.728-0.33c-0.265-0.198-0.528-0.265-0.859,0.066
			c-0.198,0.198-0.528,0.33-0.793,0.396c-0.793,0.065-1.52,0.66-2.312,0.33c-0.463-0.265-0.793-0.595-0.991-0.925
			c-0.133-0.198,0-0.463,0-0.728c0.065-0.265,0.132-0.595,0.065-0.859c-0.264-1.651-0.198-3.237-0.065-4.824
			c0.065-0.991,0.132-1.982,0.198-2.974c0.065-0.991,0.132-1.982,0.396-3.04c0-0.132,0.065-0.264,0.132-0.396
			c-0.198-0.661,0.066-1.256,0.198-1.916c0-0.595,0.132-1.189,0.132-1.784c0.133-1.19,0.199-2.38,0.331-3.569
			c0.066-0.595,0.066-1.255,0.132-1.916c0.066-0.331,0.066-0.793,0.133-1.189c0.065-0.463,0.132-0.926,0.198-1.388
			c0.065-0.463,0.132-0.991,0.065-1.454c0-1.189,0-2.313-0.065-3.503c-0.265-1.454,0-2.842-0.133-4.229
			c-0.065-1.189,0.066-2.379,0.133-3.502c-0.066-0.728-0.133-1.388,0.132-2.115c0-0.066,0-0.198,0-0.265
			c-0.132-1.057,0-2.114,0.066-3.172c0.132-0.33,0.065-0.727,0.065-1.058c0-0.462-0.065-0.925,0-1.321
			c0-0.132,0.133-0.33,0.265-0.33c0.132-0.066,0.265,0,0.463,0c0.132-0.331,0.33-0.595,0.528-0.859
			c0.132,0.132,0.198,0.198,0.265,0.198c0.462,0.198,0.595,0.066,0.66-0.396c0.133-0.595,0.396-0.793,0.991-0.661
			c0.397,0.198,0.794,0.331,0.926,0.728c0.265,0.595,0.132,0.727-0.396,0.925c-0.066,0.066-0.198,0.066-0.396,0.198
			c0.33,0.198,0.528,0.463,0.528,0.925c0,0.066,0.066,0.133,0.133,0.198c0.462,0.198,0.264,0.595,0.264,0.926
			c-0.065-0.133-0.132-0.265-0.33-0.463c0,0.595-0.066,1.124-0.132,1.586c0.528,0.066,0.33-0.396,0.462-0.595
			c0.066,0.728,0.066,1.388,0.066,2.115c0,0.264,0.066,0.528,0.066,0.793c0.132,0.66-0.066,1.321-0.198,1.916
			c0,0.133-0.066,0.265,0,0.265c0.396,0.595,0.198,1.321,0.198,1.982c0,1.189-0.066,2.313-0.066,3.503
			c0,2.114,0.066,4.163,0.066,6.278c0.065,0.528,0.065,1.057,0.065,1.784c0.133-0.198,0.198-0.265,0.198-0.331
			c0.198-1.189,0.331-2.379,0.463-3.568c0.132-0.528,0.132-1.058,0.396-1.586c0.396-0.728,0.463-1.652,0.661-2.512
			c0.065-0.858,0.462-1.586,0.793-2.312c0.065-0.066,0.132-0.198,0.198-0.265c0.793-0.265,1.454-0.727,2.312-0.463
			c0.331,0.133,0.661,0.198,0.859,0.198c0.265-0.264,0.396-0.595,0.595-0.66c0.463-0.265,0.793-0.066,1.124,0.264
			c0.33,0.396,0.462,0.859,0.595,1.322c0,0.132-0.133,0.33-0.198,0.463c-0.133,0.198-0.265,0.33-0.396,0.462
			c0.132,0.331,0.33,0.661,0.462,1.058c0.066,0.066-0.065,0.265-0.132,0.396c-0.198,0.33-0.198,0.595,0,0.661
			c0.265,0.132,0.396,0,0.528-0.265c0.066-0.066,0.066-0.198,0.133-0.396c0.065,0.132,0.132,0.198,0.132,0.265
			c0.198,1.256,0.265,2.644,0.463,3.898c0.065,0.529,0.132,1.124,0.264,1.652c0.265,0.991,0.133,1.917,0.133,2.908
			c0,0.132-0.066,0.264,0,0.33c0.264,0.528,0.198,0.991,0.264,1.521c0.133,2.181,0.396,4.428,0.529,6.608
			c0.132,0.991,0.132,1.982,0.198,2.974c0.065,0.198,0.065,0.463,0.132,0.661c0,0,0.066,0,0.132,0
			c0.133-0.728,0.265-1.454,0.463-2.247c0.066-0.661,0.265-1.256,0.463-1.917c0.198-0.991,0.463-1.916,0.661-2.907
			c0.33-1.322,0.396-2.71,0.595-4.098c0.065-1.454,0.33-2.842,0.462-4.296c0.133-0.528,0.133-1.123,0.198-1.651
			c0.066-1.189,0.133-2.313,0.198-3.503c0.066-0.396-0.065-0.793,0.066-1.256c0.066-1.52,0.265-3.04,0.396-4.626
			c0.066-0.132,0.066-0.33,0.132-0.462c0.265-0.529,0.265-0.992,0.265-1.521c0.066-0.859,0.198-1.058,0.991-1.388
			c0.859-0.396,1.652-0.132,2.445,0.132c0.132,0.066,0.265,0.198,0.463,0.198C183.181,36.759,183.71,37.155,184.173,37.684z
			 M163.355,75.485c-0.198-0.198-0.396,0-0.33,0.198c0,0.198,0.065,0.396,0.198,0.595c0.065-0.066,0.198-0.133,0.198-0.198
			C163.487,75.882,163.422,75.684,163.355,75.485z M163.289,40.922c0,0,0,0.066,0.066,0.066l0.066,0.066
			c0-0.066,0-0.133-0.066-0.133C163.355,40.922,163.355,40.922,163.289,40.922z M164.148,71.52c0.066,0.066,0.066,0.133,0.066,0.198
			c0.065,0,0.132,0,0.132-0.065c0.066-0.066,0.066-0.133,0.066-0.198C164.347,71.52,164.28,71.454,164.148,71.52z M171.021,45.812
			c0.595-0.595,0.661-0.793,0.264-1.123C170.955,44.953,170.955,45.35,171.021,45.812z M172.277,47.597
			c-0.066,0-0.066,0.066-0.133,0.066c0,0.265,0.066,0.463,0.463,0.463C172.476,47.928,172.409,47.729,172.277,47.597z M172.277,47.2
			c0.33-0.065,0.264-0.264,0.198-0.463c0,0,0-0.065-0.066-0.132C172.343,46.804,172.277,47.002,172.277,47.2z"/>
		<path fill="#231F20" d="M188.404,64.713c0.198,0.595,0.132,1.124,0,1.784c-0.066,0.529-0.265,0.991-0.132,1.652
			c0.065,0.463-0.133,0.991-0.133,1.521c0.066,1.321-0.264,2.644,0.066,4.031c0,0.198-0.066,0.462-0.066,0.66
			c0,0.529,0,0.991,0.396,1.454c0.595-0.265,1.256-0.396,1.784-0.925c0.992-1.124,1.719-2.379,2.445-3.635
			c0.595-1.124,1.124-2.247,1.719-3.305c0.132-0.198,0.264-0.463,0.264-0.727c0.397-1.982,1.256-3.768,1.917-5.617
			c0.595-1.521,1.123-2.975,1.652-4.494c-0.331-0.198-0.595-0.463-0.991-0.661c-0.595-0.264-1.058-0.727-1.454-1.388
			c-0.132-0.265-0.198-0.595-0.265-0.925c0.396-0.265,0.728-0.396,1.058-0.463c0.859-0.265,1.718-0.463,2.512-0.727
			c1.255-0.331,2.511-0.265,3.767-0.133c0.727,0.066,1.52,0.066,2.312,0.066c0.728,0,1.454,0.066,2.247,0.066
			c0.066,0,0.198,0.065,0.331,0.132c0.264,1.058,0.065,1.454-0.794,1.851c-0.132,0.065-0.33,0.264-0.396,0.396
			c-0.396,0.595-0.858,0.859-1.453,0.991c-0.198,0.066-0.396,0.132-0.595,0.198c-0.728,0-0.926,0.463-1.058,1.123
			c-0.331,1.652-0.661,3.305-1.124,4.824c-0.33,1.058-0.793,2.115-1.255,3.106c-0.595,1.321-1.189,2.644-1.719,3.965
			c-0.462,1.058-0.793,2.313-1.189,3.437c-0.198,0.728-0.528,1.388-0.859,2.049c-0.132,0.33-0.264,0.595-0.396,0.925
			c-0.264,1.058-0.793,1.851-1.453,2.644c-0.661,0.728-1.521,1.058-2.445,1.454c-0.396,0.132-0.793,0.198-1.256,0.265
			c-1.321,0.264-2.512-0.198-3.635-0.926c-0.396-0.727-1.058-0.858-1.718-1.189c-0.066,0-0.133-0.065-0.199-0.132
			c0.199-0.265,0.397-0.33,0.529-0.528c0.066-0.133,0-0.396,0-0.595c0-0.529,0.066-1.124-0.265-1.652
			c-0.065-0.133,0-0.331-0.065-0.529c-0.066-0.462-0.199-0.858-0.265-1.255c-0.066-0.133-0.066-0.265,0-0.463
			c0.065-0.396,0.198-0.661,0.396-1.058c-0.463-0.132-0.661-0.066-0.859,0.265c-0.066,0.198-0.198,0.265-0.265,0.396
			c-0.264,0.528-0.264,0.925,0.133,1.189c0.33,0.33,0.198,0.661,0.132,1.058c0,0.33-0.265,0.462-0.661,0.396
			c-0.132-0.331-0.396-0.793-0.462-1.256c-0.133-0.925-0.396-1.917,0-2.842c0.065-0.132,0-0.265,0-0.33
			c0-0.661,0.065-1.256,0.132-1.982c0.066-0.859,0.265-1.719,0.396-2.578c0.066-0.132,0.132-0.264,0.066-0.396
			c-0.198-0.66,0.198-1.189,0.264-1.784c0.198-0.793,0.331-1.652,0.463-2.445c0.066-0.132,0-0.33,0.066-0.462
			c0.528-0.926,0.727-1.983,0.925-3.04c0.198-0.661,0.529-1.454,0.728-2.115c0-0.065,0.065-0.132,0.065-0.198
			c0-1.388,0.859-2.379,1.189-3.502c0.396-1.189,0.926-2.313,1.388-3.437c0.066-0.198,0.133-0.331,0.133-0.463
			c-0.133-0.528,0.396-0.793,0.33-1.256c0.529-0.396,0.463-0.991,0.661-1.454c0.265-0.727,0.661-1.321,0.991-1.916
			c0.132-0.265,0.198-0.463,0.33-0.661c0.066-0.132,0.133-0.33,0.198-0.462c0.728-1.19,1.388-2.313,2.049-3.503
			c0.728-1.124,1.521-2.181,2.247-3.305c0.33-0.462,0.595-1.123,0.925-1.586c1.058-1.652,2.313-3.105,3.701-4.361
			c0.198-0.265,0.396-0.396,0.595-0.529c0.396-0.33,0.793-0.396,1.256-0.198s0.991,0.198,1.52,0.331
			c0.728,0.264,1.454,0.661,1.719,1.52c0.065,0.066,0.065,0.066,0.065,0.133c0.661,1.255,0.463,1.321-0.264,2.379
			c-0.066,0.132-0.198,0.198-0.331,0.264c-1.255,0.463-2.181,1.389-2.974,2.38c-0.925,1.057-1.851,1.982-2.709,3.04
			c-0.728,0.727-1.322,1.586-2.049,2.379c-0.793,0.858-1.454,1.718-2.049,2.644c-0.528,0.793-0.925,1.651-1.52,2.379
			c-0.728,0.991-0.926,2.312-1.785,3.172c-0.065,0.066-0.065,0.265-0.132,0.396c-0.33,0.727-0.661,1.388-0.991,2.115
			c-0.132,0.33-0.265,0.595-0.396,0.925c-0.33,0.991-0.661,1.851-1.123,2.775c-0.198,0.331-0.265,0.728-0.397,1.124
			c-0.198,0.858-0.396,1.651-0.595,2.511c-0.065,0.198-0.065,0.331-0.065,0.529c-0.066,0.925-0.396,1.718-0.661,2.577
			c-0.066,0.264-0.198,0.66-0.132,0.991C188.867,64.185,188.734,64.515,188.404,64.713z M186.091,66.432
			c-0.198-0.198-0.33-0.265-0.595,0C185.694,66.63,185.893,66.63,186.091,66.432z M185.761,69.141c-0.33,0.396-0.132,0.793,0,1.058
			c0.066,0.265,0.198,0.33,0.463,0.265c0.198-0.133,0.265-0.265,0.198-0.529C186.355,69.604,186.091,69.339,185.761,69.141z
			 M185.694,70.925c0,0.396,0.198,0.529,0.529,0.529C186.157,70.991,185.959,70.991,185.694,70.925z M186.091,64.581
			c0-0.066,0-0.066-0.065-0.132c0,0.065-0.066,0.065-0.133,0.132l0.066,0.066C186.025,64.647,186.091,64.581,186.091,64.581z
			 M187.347,65.572c0.133-0.198,0.265-0.33,0.331-0.463c0.264-0.462,0.264-0.793-0.198-1.189c-0.133-0.132-0.331-0.198-0.396-0.132
			c-0.133,0.066-0.265,0.33-0.198,0.528c0.132,0.728-0.265,1.521,0,2.379c0,0-0.066,0.066-0.133,0.133
			c-0.065,0-0.065-0.066-0.132-0.066c-0.066-0.198-0.198-0.198-0.331-0.066c0,0.066-0.065,0.265,0,0.265
			c0.331,0.33,0.199,0.661,0,1.058c-0.198,0.396-0.132,0.463,0.331,0.595c-0.066-0.793,0.463-1.388,0.661-2.049
			C187.347,66.233,187.479,65.902,187.347,65.572z M186.554,65.109c0-0.065-0.065-0.065-0.065-0.132
			c-0.066,0.066-0.066,0.066-0.066,0.132l0.066,0.066L186.554,65.109z M187.413,63.457c0.595-0.396,0.595-0.396,0.595-0.793
			c-0.066-0.595-0.463-0.925-0.727-1.321C187.215,62.004,187.611,62.664,187.413,63.457z M188.404,61.541
			c-0.066,0-0.132-0.066-0.132-0.066c-0.066,0-0.133,0.066-0.133,0.133c0,0,0.066,0.065,0.066,0.132
			C188.272,61.673,188.338,61.673,188.404,61.541z M188.272,57.113c0.065,0,0.132,0,0.132,0c0-0.132,0-0.198,0-0.33
			c0-0.066,0-0.066-0.066-0.066C188.338,56.849,188.338,56.981,188.272,57.113z M188.404,61.145c0.265-0.595,0.33-0.991,0.265-1.388
			C188.536,60.153,188.14,60.418,188.404,61.145z M189.131,57.973c0.133-0.529,0.595-0.859,0.661-1.388
			C189.131,56.65,188.867,57.113,189.131,57.973z M189.396,58.633c-0.066,0-0.132,0-0.198,0c0.132,0.198-0.198,0.396,0.132,0.728
			C189.329,59.029,189.396,58.831,189.396,58.633z M190.122,55.196c-0.462,0.265-0.462,0.265-0.396,0.992
			c0.133-0.133,0.265-0.331,0.463-0.661C190.188,55.527,190.122,55.329,190.122,55.196z M191.048,52.554
			c-0.33,0.198-0.33,0.33-0.265,0.528c0,0.066,0.066,0.066,0.133,0.066C190.981,53.016,190.981,52.817,191.048,52.554z"/>
		<path fill="#231F20" d="M221.714,77.468c-0.066,0.463-0.132,0.991-0.198,1.454c-0.066,0.132-0.066,0.264-0.132,0.264
			c-0.595,0.198-0.661,0.859-0.926,1.388c-0.066,0-0.132,0.066-0.265,0.133c-0.065-0.198-0.132-0.331-0.132-0.463
			c-0.595-3.04-1.123-6.014-1.189-9.12c0-0.462-0.066-0.925-0.066-1.388c-0.198-2.775,0-5.551,0.066-8.326
			c0.066-0.661,0.066-1.322,0.066-2.049c0-0.529-0.331-0.926-0.728-1.058c-0.793-0.198-1.453,0.198-2.114,0.595
			c-0.463,0.33-0.926,0.595-1.454,0.661c-0.33,0-0.463,0.198-0.595,0.595c-0.396,1.189-0.859,2.379-1.256,3.568
			c-0.264,0.859-0.528,1.784-0.727,2.71c-0.529,1.784-1.058,3.568-1.917,5.154c-0.396,0.793-1.057,1.454-1.784,1.917
			c-0.396,0.198-0.727,0.462-1.123,0.66c-0.265,0.198-0.595,0.331-0.926,0.331c-0.396,0.065-0.595-0.198-0.528-0.661
			c0.396-2.644,1.058-5.154,1.916-7.6c0.397-1.124,0.859-2.181,1.256-3.305c0.265-0.859,0.463-1.718,0.728-2.577
			c0.66-1.982,1.388-4.031,2.048-6.014c0.463-1.189,0.859-2.379,1.256-3.569c0.396-1.123,0.859-2.181,1.256-3.237
			c0.132-0.331,0.198-0.661,0.33-1.058c0-0.133,0.066-0.265,0.133-0.396c0.528-1.586,1.057-3.172,1.652-4.759
			c0.132-0.396,0.33-0.858,0.462-1.255c0.396-1.058,0.728-2.049,1.124-3.106c0.595-1.718,1.255-3.37,1.784-5.022
			c0.396-0.991,0.595-1.982,0.991-3.106c0.132-0.132,0.396-0.33,0.727-0.595c0.793,0.396,1.586,0.793,2.379,1.189
			c0.529,0.265,1.124,0.529,1.587,0.859c1.453,0.859,2.246,2.247,2.643,4.031c0.133,0.595,0.198,1.256,0.066,1.784
			c-0.198,0.926-0.132,1.784-0.198,2.644c-0.066,1.189-0.132,2.379-0.265,3.568c-0.132,2.182-0.33,4.362-0.528,6.543
			c-0.066,0.727-0.198,1.388-0.265,2.114c0,0.331,0.066,0.728,0,1.058c0,0.198,0,0.396-0.065,0.595c0,0.133-0.133,0.265-0.133,0.463
			c-0.132,0.991-0.198,1.982-0.264,2.974c-0.066,0.331-0.066,0.728-0.133,1.058c-0.198,2.049-0.33,4.163-0.595,6.212
			c-0.198,1.189-0.462,2.379-0.793,3.503c-0.396,1.189-0.463,2.511-0.727,3.7c-0.066,0.331-0.133,0.661-0.198,0.991
			c-0.331,1.389-0.661,2.71-1.058,4.098c-0.132,0.396-0.198,0.793-0.727,0.926C221.846,76.608,221.846,77.138,221.714,77.468
			c-0.066-0.132-0.066-0.198-0.132-0.33l-0.066,0.065C221.582,77.27,221.647,77.401,221.714,77.468z M219.93,42.046
			c-0.066-0.066-0.133-0.066-0.198-0.066c-1.586,4.891-3.238,9.781-4.362,14.936c0.198,0,0.265,0,0.331-0.066
			c0.859-0.33,1.784-0.727,2.644-1.057c0.793-0.331,0.793-0.331,0.858-1.454c0,0,0-0.066,0-0.133
			c0.198-3.172,0.396-6.344,0.595-9.516C219.863,43.764,219.863,42.905,219.93,42.046z"/>
	</g>
</g>
</svg>
