<?xml version="1.0" encoding="utf-8"?>
<!-- Generator: Adobe Illustrator 16.0.4, SVG Export Plug-In . SVG Version: 6.00 Build 0)  -->
<!DOCTYPE svg PUBLIC "-//W3C//DTD SVG 1.1//EN" "http://www.w3.org/Graphics/SVG/1.1/DTD/svg11.dtd">
<svg version="1.1" xmlns="http://www.w3.org/2000/svg" xmlns:xlink="http://www.w3.org/1999/xlink" x="0px" y="0px" width="114px"
	 height="111px" viewBox="0 0 114 111" enable-background="new 0 0 114 111" xml:space="preserve">
<g id="Layer_2" display="none">
	<rect display="inline" fill="#D1D3D4" width="114" height="111"/>
</g>
<g id="Layer_1">
	<g>
		<path fill="#FFFFFF" d="M35.867,42.05h9.348v1.769h-9.348V42.05z"/>
		<path fill="#FFFFFF" d="M52.641,36.112h3.559c4.064,0,6.484,2.273,6.484,6.822c0,4.569-2.42,6.949-6.359,6.949h-3.684V36.112z
			 M56.053,47.904c2.631,0,4.125-1.58,4.125-4.97c0-3.369-1.494-4.843-4.125-4.843h-0.969v9.813H56.053z"/>
		<path fill="#FFFFFF" d="M68.805,42.934c0-4.443,2.211-7.074,5.41-7.074c3.201,0,5.414,2.631,5.414,7.074
			c0,4.464-2.213,7.201-5.414,7.201C71.016,50.135,68.805,47.398,68.805,42.934z M77.121,42.934c0-3.074-1.137-4.948-2.906-4.948
			c-1.768,0-2.904,1.874-2.904,4.948c0,3.095,1.137,5.074,2.904,5.074C75.984,48.008,77.121,46.029,77.121,42.934z"/>
		<path fill="#FFFFFF" d="M34.371,61.369h2.465l0.758,7.98c0.061,1.158,0.146,2.295,0.211,3.453h0.061
			c0.232-1.158,0.547-2.316,0.803-3.453l1.197-4.463h1.561l1.18,4.463c0.23,1.116,0.547,2.274,0.777,3.453h0.086
			c0.061-1.179,0.146-2.337,0.211-3.453l0.713-7.98h2.318L44.836,75.14h-2.59l-1.221-5.033c-0.191-0.863-0.338-1.748-0.443-2.569
			H40.52c-0.127,0.821-0.273,1.706-0.463,2.569l-1.158,5.033H36.35L34.371,61.369z"/>
		<path fill="#FFFFFF" d="M52.619,61.369h2.484l3.686,7.749l1.285,2.926h0.062c-0.105-1.41-0.338-3.158-0.338-4.695v-5.98h2.338
			V75.14h-2.484l-3.686-7.77l-1.283-2.906h-0.064c0.105,1.453,0.338,3.116,0.338,4.653v6.022h-2.338V61.369z"/>
		<path fill="#FFFFFF" d="M69.541,67.307h9.35v1.769h-9.35V67.307z"/>
	</g>
</g>
</svg>
