<?xml version="1.0" encoding="utf-8"?>
<!-- Generator: Adobe Illustrator 16.0.4, SVG Export Plug-In . SVG Version: 6.00 Build 0)  -->
<!DOCTYPE svg PUBLIC "-//W3C//DTD SVG 1.1//EN" "http://www.w3.org/Graphics/SVG/1.1/DTD/svg11.dtd">
<svg version="1.1" xmlns="http://www.w3.org/2000/svg" xmlns:xlink="http://www.w3.org/1999/xlink" x="0px" y="0px" width="114px"
	 height="111px" viewBox="0 0 114 111" enable-background="new 0 0 114 111" xml:space="preserve">
<g id="Layer_2" display="none">
	<rect x="0.544" display="inline" fill="#D1D3D4" width="114" height="111"/>
</g>
<g id="Layer_1">
	<g>
		<path fill="#FFFFFF" d="M31.052,39.843H40.4v1.769h-9.349V39.843z"/>
		<path fill="#FFFFFF" d="M48.899,44.244c1.031,0.926,2.4,1.558,3.747,1.558c1.686,0,2.569-0.694,2.569-1.769
			c0-1.137-0.947-1.495-2.314-2.021l-1.876-0.821c-1.452-0.568-2.947-1.643-2.947-3.664c0-2.189,1.979-3.874,4.779-3.874
			c1.686,0,3.286,0.674,4.422,1.748l-1.262,1.558c-0.928-0.737-1.896-1.179-3.16-1.179c-1.432,0-2.315,0.61-2.315,1.622
			c0,1.074,1.115,1.453,2.359,1.937l1.81,0.779c1.748,0.694,2.989,1.727,2.989,3.727c0,2.232-1.894,4.084-5.095,4.084
			c-1.938,0-3.77-0.737-5.139-2.021L48.899,44.244z"/>
		<path fill="#FFFFFF" d="M70.728,33.653c1.685,0,3.032,0.821,3.917,1.727l-1.369,1.516c-0.673-0.674-1.475-1.116-2.548-1.116
			c-2.295,0-3.874,1.895-3.874,4.99c0,3.137,1.579,5.032,3.938,5.032c1.114,0,1.978-0.505,2.758-1.368l1.348,1.495
			c-1.115,1.285-2.525,2-4.254,2c-3.516,0-6.296-2.526-6.296-7.096C64.347,36.327,67.085,33.653,70.728,33.653z"/>
		<path fill="#FFFFFF" d="M89.145,47.676l-2.948-5.39h-2.063v5.39H81.69V33.905h4.591c2.863,0,5.074,1.011,5.074,4.085
			c0,2.084-1.095,3.369-2.736,3.938l3.283,5.748H89.145z M84.133,40.348h1.896c1.894,0,2.926-0.8,2.926-2.358
			c0-1.579-1.032-2.126-2.926-2.126h-1.896V40.348z"/>
		<path fill="#FFFFFF" d="M30.314,65.984c0-4.443,2.211-7.074,5.411-7.074c3.201,0,5.41,2.631,5.41,7.074
			c0,4.464-2.209,7.201-5.41,7.201C32.525,73.186,30.314,70.449,30.314,65.984z M38.631,65.984c0-3.074-1.137-4.948-2.905-4.948
			c-1.768,0-2.906,1.874-2.906,4.948c0,3.096,1.139,5.074,2.906,5.074C37.494,71.059,38.631,69.08,38.631,65.984z"/>
		<path fill="#FFFFFF" d="M48.773,59.163h2.422v11.707h6.464v2.064h-8.886V59.163z"/>
		<path fill="#FFFFFF" d="M65.611,59.163h2.421v11.707h6.463v2.064h-8.884V59.163z"/>
		<path fill="#FFFFFF" d="M81.563,65.1h9.35v1.769h-9.35V65.1z"/>
	</g>
</g>
</svg>
