<?xml version="1.0" encoding="utf-8"?>
<!-- Generator: Adobe Illustrator 19.0.0, SVG Export Plug-In . SVG Version: 6.00 Build 0)  -->
<svg version="1.1" id="Layer_1" xmlns="http://www.w3.org/2000/svg" xmlns:xlink="http://www.w3.org/1999/xlink" x="0px" y="0px"
	 viewBox="-219 370 53 48" style="enable-background:new -219 370 53 48;" xml:space="preserve">
<style type="text/css">
	.st0{display:none;}
</style>
<g id="Layer_2" class="st0">
</g>
<g id="Layer_1_1_">
	<g>
		<path d="M-214.4,380.5h9.3v1.8h-9.3V380.5z"/>
		<path d="M-197.6,374.6h2.5l1.7,5.3l0.6,2.1h0.1l0.6-2.1l1.6-5.3h2.5v13.8h-2v-6.1c0-1.3,0.2-3.9,0.3-5.2h-0.1l-1,3.4l-1.5,4.3
			h-1.2l-1.5-4.3l-1-3.4h-0.1c0.1,1.3,0.3,3.9,0.3,5.2v6.1h-2V374.6z"/>
		<path d="M-181.4,381.4c0-4.4,2.2-7.1,5.4-7.1c3.2,0,5.4,2.6,5.4,7.1c0,4.5-2.2,7.2-5.4,7.2C-179.2,388.6-181.4,385.9-181.4,381.4z
			 M-173.1,381.4c0-3.1-1.1-4.9-2.9-4.9c-1.8,0-2.9,1.9-2.9,4.9c0,3.1,1.1,5.1,2.9,5.1C-174.2,386.5-173.1,384.5-173.1,381.4z"/>
		<path d="M-206.8,413.6l-2.9-5.4h-2.1v5.4h-2.4v-13.8h4.6c2.9,0,5.1,1,5.1,4.1c0,2.1-1.1,3.4-2.7,3.9l3.3,5.7L-206.8,413.6
			L-206.8,413.6z M-211.8,406.3h1.9c1.9,0,2.9-0.8,2.9-2.4c0-1.6-1-2.1-2.9-2.1h-1.9V406.3z"/>
		<path d="M-197,399.9h8.8v2.1h-6.4v3.5h5.4v2.1h-5.4v4.1h6.6v2.1h-9V399.9z"/>
		<path d="M-180.7,405.8h9.3v1.8h-9.3V405.8z"/>
	</g>
</g>
</svg>
