<?xml version="1.0" encoding="utf-8"?>
<!-- Generator: Adobe Illustrator 19.0.0, SVG Export Plug-In . SVG Version: 6.00 Build 0)  -->
<svg version="1.1" id="Layer_1" xmlns="http://www.w3.org/2000/svg" xmlns:xlink="http://www.w3.org/1999/xlink" x="0px" y="0px"
	 viewBox="-213.2 365 44.4 48.2" style="enable-background:new -213.2 365 44.4 48.2;" xml:space="preserve">
<style type="text/css">
	.st0{display:none;}
</style>
<g id="Layer_2" class="st0">
</g>
<g id="Layer_1_1_">
	<g>
		<path d="M-212.3,379.9h9.4v1.8h-9.4V379.9z"/>
		<path d="M-195.5,373.9h2.5l3.7,7.8l1.3,2.9h0.1c-0.1-1.4-0.3-3.2-0.3-4.7v-6h2.4v13.9h-2.5l-3.7-7.8l-1.3-2.9h-0.1
			c0.1,1.5,0.3,3.1,0.3,4.7v6.1h-2.4V373.9z"/>
		<path d="M-177.9,373.9h8.9v2.1h-6.4v3.5h5.4v2.1h-5.4v4.1h6.6v2.1h-9.1L-177.9,373.9L-177.9,373.9z"/>
		<path d="M-209.1,406l-3.8-6.7h2.7l1.6,3.1c0.3,0.6,0.7,1.3,1.1,2.1h0.1c0.4-0.8,0.7-1.5,1-2.1l1.6-3.1h2.6l-3.8,6.8l4.1,7h-2.7
			l-1.8-3.3c-0.4-0.7-0.7-1.4-1.2-2.3h-0.1c-0.4,0.8-0.7,1.5-1.1,2.3l-1.7,3.3h-2.6L-209.1,406z"/>
		<path d="M-191.9,401.4h-4.4v-2.1h11.2v2.1h-4.4v11.8h-2.5V401.4z"/>
		<path d="M-178.4,405.3h9.4v1.8h-9.4C-178.4,407.1-178.4,405.3-178.4,405.3z"/>
	</g>
</g>
</svg>
