<?xml version="1.0" encoding="utf-8"?>
<!-- Generator: Adobe Illustrator 19.0.0, SVG Export Plug-In . SVG Version: 6.00 Build 0)  -->
<svg version="1.1" id="Layer_1" xmlns="http://www.w3.org/2000/svg" xmlns:xlink="http://www.w3.org/1999/xlink" x="0px" y="0px"
	 viewBox="-223 370 75 43.9" style="enable-background:new -223 370 75 43.9;" xml:space="preserve">
<style type="text/css">
	.st0{display:none;}
	.st1{display:inline;fill:#D1D3D4;}
	.st2{fill:#FFFFFF;}
</style>
<g id="Layer_2" class="st0">
	<rect x="-247.5" y="341" class="st1" width="114" height="111"/>
</g>
<g id="Layer_1_1_">
	<g>
		<path class="st2" d="M-216.9,380.8h9.3v1.8h-9.3L-216.9,380.8L-216.9,380.8z"/>
		<path class="st2" d="M-199.1,385.2c1,0.9,2.4,1.6,3.7,1.6c1.7,0,2.6-0.7,2.6-1.8c0-1.1-0.9-1.5-2.3-2l-1.9-0.8
			c-1.5-0.6-2.9-1.6-2.9-3.7c0-2.2,2-3.9,4.8-3.9c1.7,0,3.3,0.7,4.4,1.7l-1.3,1.6c-0.9-0.7-1.9-1.2-3.2-1.2c-1.4,0-2.3,0.6-2.3,1.6
			c0,1.1,1.1,1.5,2.4,1.9l1.8,0.8c1.7,0.7,3,1.7,3,3.7c0,2.2-1.9,4.1-5.1,4.1c-1.9,0-3.8-0.7-5.1-2L-199.1,385.2z"/>
		<path class="st2" d="M-177.3,374.7c1.7,0,3,0.8,3.9,1.7l-1.4,1.5c-0.7-0.7-1.5-1.1-2.5-1.1c-2.3,0-3.9,1.9-3.9,5
			c0,3.1,1.6,5,3.9,5c1.1,0,2-0.5,2.8-1.4l1.3,1.5c-1.1,1.3-2.5,2-4.3,2c-3.5,0-6.3-2.5-6.3-7.1
			C-183.7,377.3-180.9,374.7-177.3,374.7z"/>
		<path class="st2" d="M-158.9,388.7l-2.9-5.4h-2.1v5.4h-2.4v-13.8h4.6c2.9,0,5.1,1,5.1,4.1c0,2.1-1.1,3.4-2.7,3.9l3.3,5.7H-158.9z
			 M-163.9,381.3h1.9c1.9,0,2.9-0.8,2.9-2.4c0-1.6-1-2.1-2.9-2.1h-1.9V381.3z"/>
		<path class="st2" d="M-217.7,407c0-4.4,2.2-7.1,5.4-7.1c3.2,0,5.4,2.6,5.4,7.1c0,4.5-2.2,7.2-5.4,7.2
			C-215.5,414.2-217.7,411.4-217.7,407z M-209.4,407c0-3.1-1.1-4.9-2.9-4.9c-1.8,0-2.9,1.9-2.9,4.9c0,3.1,1.1,5.1,2.9,5.1
			C-210.5,412.1-209.4,410.1-209.4,407z"/>
		<path class="st2" d="M-199.2,400.2h2.4v11.7h6.5v2.1h-8.9C-199.2,413.9-199.2,400.2-199.2,400.2z"/>
		<path class="st2" d="M-182.4,400.2h2.4v11.7h6.5v2.1h-8.9C-182.4,413.9-182.4,400.2-182.4,400.2z"/>
		<path class="st2" d="M-166.4,406.1h9.3v1.8h-9.3V406.1z"/>
	</g>
</g>
</svg>
