<?xml version="1.0" encoding="utf-8"?>
<!-- Generator: Adobe Illustrator 16.0.4, SVG Export Plug-In . SVG Version: 6.00 Build 0)  -->
<!DOCTYPE svg PUBLIC "-//W3C//DTD SVG 1.1//EN" "http://www.w3.org/Graphics/SVG/1.1/DTD/svg11.dtd">
<svg version="1.1" xmlns="http://www.w3.org/2000/svg" xmlns:xlink="http://www.w3.org/1999/xlink" x="0px" y="0px" width="114px"
	 height="111px" viewBox="0 0 114 111" enable-background="new 0 0 114 111" xml:space="preserve">
<g id="Layer_2" display="none">
</g>
<g id="Layer_1">
	<g>
		<path fill-rule="evenodd" clip-rule="evenodd" d="M56.983,27.154c15.586-0.091,28.591,12.747,28.361,28.769
			c-0.223,15.59-13.122,28.204-28.879,27.918c-15.284-0.277-27.872-12.818-27.812-28.506C28.713,39.792,41.379,27.154,56.983,27.154
			z M65.341,37.462c-2.813,0.13-5.614-0.308-8.355,0.418c-2.783,0.737-4.359,2.709-4.497,5.62c-0.075,1.579-0.029,3.162-0.038,4.743
			c-0.001,0.359,0,0.717,0,1.139c-1.317,0-2.543,0-3.791,0c0,2.069,0,4.074,0,6.18c1.272,0,2.514,0,3.815,0
			c0,6.119,0,12.136,0,18.181c2.436,0,4.808,0,7.262,0c0-6.1,0-12.16,0-18.304c1.739,0,3.397,0,5.087,0
			c0.182-2.057,0.356-4.03,0.538-6.087c-1.898,0-3.741,0-5.604,0c0-1.451-0.029-2.825,0.011-4.196
			c0.025-0.875,0.391-1.244,1.274-1.303c0.935-0.062,1.876-0.042,2.814-0.054c0.492-0.006,0.983,0,1.485,0
			C65.341,41.636,65.341,39.606,65.341,37.462z"/>
	</g>
</g>
</svg>
