<?xml version="1.0" encoding="utf-8"?>
<!-- Generator: Adobe Illustrator 19.0.0, SVG Export Plug-In . SVG Version: 6.00 Build 0)  -->
<svg version="1.1" id="Layer_1" xmlns="http://www.w3.org/2000/svg" xmlns:xlink="http://www.w3.org/1999/xlink" x="0px" y="0px"
	 viewBox="-219.3 368.2 56.7 56.7" style="enable-background:new -219.3 368.2 56.7 56.7;" xml:space="preserve">
<style type="text/css">
	.st0{display:none;}
</style>
<g id="Layer_2" class="st0">
</g>
<g id="Layer_1_1_">
	<g>
		<path d="M-191,424.8c-15.7,0-28.3-12.7-28.3-28.3c0-15.7,12.7-28.3,28.3-28.3s28.3,12.7,28.3,28.3
			C-162.7,412.2-175.3,424.8-191,424.8z M-197.1,379.1c-8.2,0-14.9,5.7-14.9,12.8c0,4.1,2.2,7.5,6,10.2l-1.5,4.5l5.2-2.6
			c1.9,0.4,3.4,0.8,5.2,0.8c0.5,0,0.9,0,1.4-0.1c-0.3-1-0.5-2.1-0.5-3.2c0-6.6,5.6-11.9,12.7-11.9c0.5,0,1,0,1.4,0.1
			C-183.4,383.6-189.8,379.1-197.1,379.1z M-182.6,390.4c-7.1,0-12.7,4.9-12.7,11c0,6.1,5.6,11,12.7,11c1.5,0,3-0.4,4.5-0.8l4.1,2.3
			l-1.1-3.8c3-2.3,5.2-5.3,5.2-8.7C-170,395.4-175.9,390.4-182.6,390.4z M-178.5,399.5c-0.7,0-1.5-0.7-1.5-1.5
			c0-0.8,0.7-1.5,1.5-1.5c1.1,0,1.9,0.8,1.9,1.5C-176.7,398.8-177.4,399.5-178.5,399.5z M-186.7,399.5c-0.7,0-1.5-0.7-1.5-1.5
			c0-0.8,0.8-1.5,1.5-1.5c1.1,0,1.9,0.8,1.9,1.5C-184.9,398.8-185.6,399.5-186.7,399.5z M-191.6,389.3c-1.1,0-2.2-0.8-2.2-1.9
			c0-1.1,1.1-1.9,2.2-1.9c1.1,0,1.9,0.7,1.9,1.9C-189.7,388.6-190.4,389.3-191.6,389.3z M-202,389.3c-1.1,0-2.2-0.8-2.2-1.9
			c0-1.1,1.1-1.9,2.2-1.9c1.1,0,1.9,0.7,1.9,1.9C-200.1,388.6-200.9,389.3-202,389.3z"/>
	</g>
</g>
</svg>
