<?xml version="1.0" encoding="utf-8"?>
<!-- Generator: Adobe Illustrator 19.0.0, SVG Export Plug-In . SVG Version: 6.00 Build 0)  -->
<svg version="1.1" id="Layer_1" xmlns="http://www.w3.org/2000/svg" xmlns:xlink="http://www.w3.org/1999/xlink" x="0px" y="0px"
	 viewBox="-219.3 368.2 56.7 56.7" style="enable-background:new -219.3 368.2 56.7 56.7;" xml:space="preserve">
<style type="text/css">
	.st0{display:none;}
	.st1{fill:#FFFFFF;}
</style>
<g id="Layer_2" class="st0">
</g>
<g id="Layer_1_1_">
	<g>
		<path d="M-191,368.2c15.7,0,28.4,12.8,28.3,28.4c-0.1,15.7-12.7,28.3-28.4,28.3c-15.7,0-28.4-12.8-28.3-28.4
			C-219.3,380.7-206.6,368.1-191,368.2z M-191.1,412.3c3.1,0,6.2,0,9.2,0c3.6,0,6.2-2.6,6.2-6.2c0-6.1,0-12.3,0-18.4
			c0-3.6-2.6-6.2-6.2-6.2c-6.1,0-12.3,0-18.4,0c-3.7,0-6.2,2.6-6.2,6.3c0,6.1,0,12.2,0,18.4c0,3.6,2.5,6.2,6.2,6.2
			C-197.3,412.3-194.2,412.3-191.1,412.3z"/>
		<path class="st1" d="M-191.1,412.3c-3.1,0-6.2,0-9.2,0c-3.6,0-6.2-2.6-6.2-6.2c0-6.1,0-12.2,0-18.4c0-3.7,2.5-6.3,6.2-6.3
			c6.1,0,12.3,0,18.4,0c3.6,0,6.2,2.6,6.2,6.2c0,6.1,0,12.3,0,18.4c0,3.6-2.6,6.2-6.2,6.2C-185,412.3-188.1,412.3-191.1,412.3z
			 M-183.3,393.8c0.7,1.9,0.8,3.7,0.2,5.6c-0.6,1.9-1.7,3.4-3.3,4.5c-2.9,1.9-5.9,2.1-8.9,0.4c-4-2.4-5.1-6-3.8-10.4
			c-1.5,0-3,0-4.5,0c0,0.3,0,0.5,0,0.7c0,3.8,0,7.7,0,11.5c0,2.1,1.2,3.3,3.3,3.3c6.1,0,12.2,0,18.2,0c2.1,0,3.3-1.2,3.3-3.3
			c0-3.9,0-7.7,0-11.6c0-0.2,0-0.4,0-0.7C-180.3,393.8-181.8,393.8-183.3,393.8z M-191.2,391.5c-3,0-5.4,2.4-5.4,5.4
			c0,3,2.4,5.5,5.4,5.5c3,0,5.4-2.4,5.4-5.4C-185.7,393.9-188.1,391.5-191.2,391.5z M-179.3,385.1c-1.8,0-3.5,0-5.1,0
			c0,1.8,0,3.5,0,5.1c1.7,0,3.4,0,5.1,0C-179.3,388.5-179.3,386.8-179.3,385.1z"/>
		<path d="M-183.3,393.8c1.5,0,3,0,4.6,0c0,0.2,0,0.4,0,0.7c0,3.9,0,7.7,0,11.6c0,2.1-1.2,3.3-3.3,3.3c-6.1,0-12.2,0-18.2,0
			c-2.1,0-3.3-1.2-3.3-3.3c0-3.8,0-7.7,0-11.5c0-0.2,0-0.4,0-0.7c1.5,0,3,0,4.5,0c-1.2,4.4-0.2,8,3.8,10.4c2.9,1.7,6,1.5,8.9-0.4
			c1.6-1.1,2.7-2.6,3.3-4.5C-182.5,397.5-182.6,395.7-183.3,393.8z"/>
		<path d="M-191.2,391.5c3,0,5.4,2.4,5.4,5.4c0,3-2.4,5.4-5.4,5.4c-3,0-5.4-2.5-5.4-5.5C-196.6,393.9-194.1,391.5-191.2,391.5z"/>
		<path d="M-179.3,385.1c0,1.7,0,3.4,0,5.1c-1.7,0-3.4,0-5.1,0c0-1.7,0-3.4,0-5.1C-182.8,385.1-181.1,385.1-179.3,385.1z"/>
	</g>
</g>
</svg>
