<?xml version="1.0" encoding="utf-8"?>
<!-- Generator: Adobe Illustrator 16.0.4, SVG Export Plug-In . SVG Version: 6.00 Build 0)  -->
<!DOCTYPE svg PUBLIC "-//W3C//DTD SVG 1.1//EN" "http://www.w3.org/Graphics/SVG/1.1/DTD/svg11.dtd">
<svg version="1.1" xmlns="http://www.w3.org/2000/svg" xmlns:xlink="http://www.w3.org/1999/xlink" x="0px" y="0px" width="114px"
	 height="111px" viewBox="0 0 114 111" enable-background="new 0 0 114 111" xml:space="preserve">
<g id="Layer_2" display="none">
</g>
<g id="Layer_1">
	<g>
		<path fill-rule="evenodd" clip-rule="evenodd" d="M57.021,27.153c15.702,0.032,28.404,12.769,28.325,28.399
			c-0.08,15.712-12.726,28.324-28.367,28.294c-15.701-0.031-28.402-12.765-28.325-28.399C28.73,39.741,41.383,27.121,57.021,27.153z
			 M56.865,71.337c3.082,0,6.164,0.005,9.245-0.002c3.614-0.007,6.171-2.569,6.174-6.194c0.006-6.142,0.006-12.284,0-18.426
			c-0.004-3.614-2.561-6.187-6.183-6.195c-6.142-0.014-12.285-0.018-18.427,0.001c-3.721,0.012-6.228,2.555-6.23,6.269
			c-0.003,6.121-0.003,12.242,0,18.363c0.001,3.625,2.548,6.176,6.175,6.183C50.701,71.341,53.783,71.337,56.865,71.337z"/>
		<path fill-rule="evenodd" clip-rule="evenodd" fill="#FFFFFF" d="M56.865,71.337c-3.082,0-6.164,0.004-9.245-0.002
			c-3.626-0.007-6.173-2.558-6.175-6.183c-0.003-6.121-0.003-12.242,0-18.363c0.002-3.714,2.509-6.257,6.23-6.269
			c6.142-0.019,12.285-0.015,18.427-0.001c3.622,0.009,6.179,2.581,6.183,6.195c0.006,6.142,0.006,12.284,0,18.426
			c-0.003,3.625-2.561,6.188-6.174,6.194C63.028,71.342,59.946,71.337,56.865,71.337z M64.707,52.81
			c0.675,1.879,0.792,3.732,0.206,5.601c-0.586,1.871-1.669,3.4-3.306,4.471c-2.862,1.871-5.916,2.106-8.854,0.367
			c-4.015-2.379-5.055-6.023-3.808-10.416c-1.512,0-2.983,0-4.49,0c0,0.272,0,0.482,0,0.694c0,3.847-0.003,7.693,0.001,11.54
			c0.002,2.098,1.186,3.286,3.275,3.287c6.079,0.004,12.157,0.004,18.235,0.001c2.103-0.001,3.292-1.182,3.294-3.267
			c0.003-3.868,0-7.736,0-11.604c0-0.225,0-0.448,0-0.674C67.703,52.81,66.244,52.81,64.707,52.81z M56.849,50.517
			c-2.963,0.004-5.401,2.423-5.422,5.381c-0.021,2.979,2.433,5.456,5.413,5.465c2.999,0.011,5.43-2.414,5.439-5.423
			C62.289,52.942,59.855,50.514,56.849,50.517z M68.687,44.109c-1.767,0-3.454,0-5.14,0c0,1.754,0,3.457,0,5.14
			c1.74,0,3.426,0,5.14,0C68.687,47.513,68.687,45.827,68.687,44.109z"/>
		<path fill-rule="evenodd" clip-rule="evenodd" d="M64.707,52.81c1.537,0,2.996,0,4.554,0c0,0.226,0,0.449,0,0.674
			c0,3.868,0.002,7.736,0,11.604c-0.001,2.085-1.191,3.266-3.294,3.267c-6.079,0.003-12.157,0.003-18.235-0.001
			c-2.09-0.001-3.273-1.189-3.275-3.287c-0.004-3.847-0.001-7.693-0.001-11.54c0-0.212,0-0.422,0-0.694c1.507,0,2.978,0,4.49,0
			c-1.247,4.393-0.207,8.037,3.808,10.416c2.938,1.739,5.992,1.504,8.854-0.367c1.637-1.07,2.719-2.6,3.306-4.471
			C65.499,56.542,65.382,54.688,64.707,52.81z"/>
		<path fill-rule="evenodd" clip-rule="evenodd" d="M56.849,50.517c3.007-0.003,5.44,2.426,5.43,5.423
			c-0.01,3.009-2.441,5.434-5.439,5.423c-2.98-0.009-5.433-2.486-5.413-5.465C51.447,52.939,53.885,50.521,56.849,50.517z"/>
		<path fill-rule="evenodd" clip-rule="evenodd" d="M68.687,44.109c0,1.718,0,3.403,0,5.14c-1.714,0-3.399,0-5.14,0
			c0-1.683,0-3.386,0-5.14C65.233,44.109,66.92,44.109,68.687,44.109z"/>
	</g>
</g>
</svg>
