<?xml version="1.0" encoding="utf-8"?>
<!-- Generator: Adobe Illustrator 19.0.0, SVG Export Plug-In . SVG Version: 6.00 Build 0)  -->
<svg version="1.1" id="Layer_1" xmlns="http://www.w3.org/2000/svg" xmlns:xlink="http://www.w3.org/1999/xlink" x="0px" y="0px"
	 viewBox="-155 370 212 53" style="enable-background:new -155 370 212 53;" xml:space="preserve">
<style type="text/css">
	.st0{display:none;}
	.st1{fill:#231F20;}
</style>
<g id="Layer_2" class="st0">
</g>
<g id="Layer_1_1_">
	<g>
		<path class="st1" d="M-143.4,397.8c-0.4,0.4-0.6,0.9-0.7,1.3c-0.1,0.2-0.2,0.4-0.3,0.6c-0.1,0-0.1,0.1-0.1,0.1
			c0.1,0.6-0.5,1.1-0.5,1.7c-0.1,0.1-0.1,0.3-0.1,0.4c-0.2,0.5-0.3,0.9-0.5,1.4c-0.1,0.3-0.3,0.5-0.4,0.8c-0.1,0.2-0.3,0.4-0.4,0.5
			c-0.1,0.3-0.2,0.7,0,1c-0.5,0.2-0.5,0.5-0.4,0.9c0.1,0.3,0.1,0.7-0.2,1c-0.2,0.2-0.3,0.5-0.5,0.8c0.2,0.5,0.2,0.5-0.3,0.7
			c-0.1,0.2,0,0.4-0.1,0.6c-0.1,0.2-0.3,0.3-0.4,0.5c0.4,0.2,0.4,0.5,0.2,0.9c-0.1,0.5-0.2,1-0.2,1.5c-0.1,0.5-0.3,0.9-0.1,1.5
			c0.1,0.1,0.1,0.1,0,0.1c-0.4,0.7-0.1,1.5-0.1,2.2c0,0.1-0.1,0.3-0.1,0.6c0.2,0.1,0.4,0.4,0.7,0.7c-0.3,0.2-0.7,0.3-1,0.5
			c-0.2,0.2-0.4,0.5-0.9,0.5c-0.1-0.2-0.2-0.4-0.3-0.6c-0.1-0.8-0.3-1.6-0.3-2.4c0.1-0.6,0.3-1.2,0.1-1.8c-0.1-0.3,0-0.7,0-1
			c0.1-0.3,0.1-0.7,0.1-1.1c0-1.2,0.5-2.4,0.5-3.6c0-0.8,0.2-1.5,0.4-2.3c0.1-0.3,0.1-0.5,0.1-0.8c0.1-0.8,0.1-1.5,0.4-2.2
			c0.2-0.7,0.2-1.4,0.3-2c0.1-1.1,0.3-2.1,0.5-3.2c0.1-0.6,0-1.1,0.1-1.7c0.2-1.2,0.3-2.4,0.7-3.6c0.1-0.3,0.1-0.5,0.1-0.7
			c0.1-0.6,0.2-1.2,0.3-1.9c0.1-0.9,0.3-1.9,0.5-2.8c0-0.1,0.1-0.3,0.1-0.4c0.2-0.9,0.4-1.7,0.6-2.5c0.3-1.2,0.6-2.3,0.9-3.5
			c0.1-0.5,0.3-0.9,0.4-1.4c-0.7,0.1-1.3,0.4-1.9,0.1c-0.6-0.3-1.4-0.5-1.7-1.1c0-0.1,0-0.1,0-0.2c0.9-0.9,1.9-1.7,3-2.2
			c0.5-0.3,1.1-0.5,1.7-0.9c0.1-0.1,0.3-0.3,0.4-0.4c0.2-0.6,0.3-1.2,0.5-1.8c0.1-0.2,0.2-0.3,0.4-0.3c0.9-0.2,1.8-0.3,2.7,0
			c0.4,0.2,0.8,0.1,1.2,0c2.1-0.8,4.3-1.3,6.5-1.2c1.2,0,2.4,0.1,3.6,0.2c1.6,0.2,2.7,1.1,3.5,2.4c0.5,0.9,0.5,1.7,0.3,2.6
			c-0.2,0.8-0.5,1.6-0.9,2.2c-0.1,0.1-0.1,0.3-0.2,0.3c-0.7,0.7-0.9,1.6-1.3,2.4c-0.2,0.3-0.5,0.6-0.7,0.9c-0.4,0.6-0.7,1.3-1.2,1.9
			c-0.6,0.7-1.3,1.5-1.9,2.2c-0.1,0.1-0.2,0.3-0.3,0.4c-0.4,0.9-0.9,1.6-1.7,2.2c-0.1,0.1-0.2,0.2-0.3,0.3c-0.4,0.7-0.7,1.3-1.2,2
			c-0.3,0.4-0.5,0.8-0.9,1.1c-0.5,0.7-1.3,1.1-1.9,1.7c-0.3,0.3-0.6,0.7-0.9,1c-0.1,0.1-0.2,0.1-0.3,0.1c-0.7,0.1-1,0.7-1.5,1
			c-0.3,0.2-0.7,0.3-1,0.5c-0.5,0.3-1,0.5-1.5,0.8c-0.2,0.1-0.5,0.2-0.7,0.3c-0.2,0.1-0.3,0.1-0.5,0.2
			C-142.9,398-142.9,398-143.4,397.8z M-141.6,391.8c0.5-0.1,0.5-0.1,0.7-0.4c0.1-0.2,0.3-0.3,0.5-0.5c0.4-0.3,0.9-0.7,1.2-1
			c0.4-0.3,0.7-0.8,1-1.1c0.4-0.4,0.9-0.8,1.3-1.2c0.2-0.2,0.4-0.4,0.5-0.6c0.1-0.3,0.3-0.5,0.6-0.6c0.3-0.1,0.5-0.3,0.6-0.5
			c0-0.3,0.2-0.5,0.5-0.6c0.4-0.1,0.5-0.4,0.7-0.7c0.1-0.1,0.1-0.3,0.2-0.4c0.7-0.7,1.4-1.5,2-2.3c1.2-1.5,2.1-3,2.8-4.8
			c0.3-0.8,0.6-1.6,0.8-2.4c0.1-0.3,0-0.4-0.3-0.4c-0.7,0-1.3,0-1.9,0.1c-0.8,0.1-1.5,0.3-2.3,0.6c-0.7,0.2-1.4,0.4-2,0.7
			c-0.9,0.5-1.9,0.7-2.8,0.9c-0.7,0.2-1,0.5-1.1,1.1c-0.1,0.6-0.1,1.3-0.3,1.9c-0.3,1.7-0.6,3.5-0.9,5.2c-0.1,0.5-0.3,1-0.5,1.5
			c-0.2,0.8-0.3,1.5-0.5,2.3c-0.3,0.9-0.5,1.8-0.9,2.7C-141.6,391.6-141.6,391.7-141.6,391.8z"/>
		<path class="st1" d="M-116.8,418.5c-0.1,0.5-0.1,1-0.2,1.5c-0.1,0.1-0.1,0.3-0.1,0.3c-0.6,0.2-0.7,0.9-0.9,1.4
			c-0.1,0-0.1,0.1-0.3,0.1c-0.1-0.2-0.1-0.3-0.1-0.5c-0.6-3-1.1-6-1.2-9.1c0-0.5-0.1-0.9-0.1-1.4c-0.2-2.8,0-5.6,0.1-8.3
			c0.1-0.7,0.1-1.3,0.1-2c0-0.5-0.3-0.9-0.7-1.1c-0.8-0.2-1.5,0.2-2.1,0.6c-0.5,0.3-0.9,0.6-1.5,0.7c-0.3,0-0.5,0.2-0.6,0.6
			c-0.4,1.2-0.9,2.4-1.3,3.6c-0.3,0.9-0.5,1.8-0.7,2.7c-0.5,1.8-1.1,3.6-1.9,5.2c-0.4,0.8-1.1,1.5-1.8,1.9c-0.4,0.2-0.7,0.5-1.1,0.7
			c-0.3,0.2-0.6,0.3-0.9,0.3c-0.4,0.1-0.6-0.2-0.5-0.7c0.4-2.6,1.1-5.2,1.9-7.6c0.4-1.1,0.9-2.2,1.3-3.3c0.3-0.9,0.5-1.7,0.7-2.6
			c0.7-2,1.4-4,2-6c0.5-1.2,0.9-2.4,1.3-3.6c0.4-1.1,0.9-2.2,1.3-3.2c0.1-0.3,0.2-0.7,0.3-1.1c0-0.1,0.1-0.3,0.1-0.4
			c0.5-1.6,1.1-3.2,1.7-4.8c0.1-0.4,0.3-0.9,0.5-1.3c0.4-1.1,0.7-2,1.1-3.1c0.6-1.7,1.3-3.4,1.8-5c0.4-1,0.6-2,1-3.1
			c0.1-0.1,0.4-0.3,0.7-0.6c0.8,0.4,1.6,0.8,2.4,1.2c0.5,0.3,1.1,0.5,1.6,0.9c1.5,0.9,2.2,2.2,2.6,4c0.1,0.6,0.2,1.3,0.1,1.8
			c-0.2,0.9-0.1,1.8-0.2,2.6c-0.1,1.2-0.1,2.4-0.3,3.6c-0.1,2.2-0.3,4.4-0.5,6.5c-0.1,0.7-0.2,1.4-0.3,2.1c0,0.3,0.1,0.7,0,1.1
			c0,0.2,0,0.4-0.1,0.6c0,0.1-0.1,0.3-0.1,0.5c-0.1,1-0.2,2-0.3,3c-0.1,0.3-0.1,0.7-0.1,1.1c-0.2,2-0.3,4.2-0.6,6.2
			c-0.2,1.2-0.5,2.4-0.8,3.5c-0.4,1.2-0.5,2.5-0.7,3.7c-0.1,0.3-0.1,0.7-0.2,1c-0.3,1.4-0.7,2.7-1.1,4.1c-0.1,0.4-0.2,0.8-0.7,0.9
			C-116.6,417.6-116.6,418.1-116.8,418.5c-0.1-0.1-0.1-0.2-0.1-0.3l-0.1,0.1C-116.9,418.3-116.8,418.4-116.8,418.5z M-118.5,383
			c-0.1-0.1-0.1-0.1-0.2-0.1c-1.6,4.9-3.2,9.8-4.4,14.9c0.2,0,0.3,0,0.3-0.1c0.9-0.3,1.8-0.7,2.6-1.1c0.8-0.3,0.8-0.3,0.9-1.5
			c0,0,0-0.1,0-0.1c0.2-3.2,0.4-6.3,0.6-9.5C-118.6,384.8-118.6,383.9-118.5,383z"/>
		<path class="st1" d="M-88.3,423c-0.4-0.1-0.7-0.2-1.1-0.3c-0.1-0.3-0.2-0.8-0.3-1.3c0.2,0.1,0.3,0,0.5,0c-0.3-0.4-0.5-0.7-0.7-1.1
			c-0.1-0.1-0.1-0.2-0.1-0.3c0-0.4-0.1-0.7-0.5-1c-0.3,0.6-0.5,1.2-0.2,1.9c0.1,0.3,0.1,0.5,0.2,0.7c0,0.1-0.1,0.3-0.3,0.5
			c-0.1,0-0.1,0-0.1,0c-0.1-0.6-0.1-1.2-0.2-1.7c-0.1-0.1,0-0.1-0.1-0.1c-0.3-0.5-0.7-0.9-1.3-1.2c0,0.1-0.1,0.3-0.1,0.4
			c0,0.5,0.1,0.9,0.1,1.3c0.1,0.3-0.1,0.5-0.3,0.7c-0.1-0.1-0.3-0.2-0.5-0.5c-0.1,0.1-0.2,0.3-0.3,0.4c-0.4-0.7-0.7-1.3-0.9-2.1
			c0,0.1-0.1,0.1-0.1,0.2c-0.1,0.1-0.2,0.1-0.3,0.2c-0.1-0.2-0.4-0.3-0.7-0.1c0.3,0.2,0.6,0.5,0.9,0.7c-0.4,0.2-0.8,0.1-1.1,0.3
			c-0.2,0.3-0.4,0.4-0.3,0.7c0,0.5-0.1,0.5-0.7,0.7c-0.1-0.7-0.1-1.3-0.2-1.9c-0.1-0.9-0.3-1.9-0.5-2.8c-0.3-1.8-0.7-3.6-1.1-5.5
			c-0.2-1.5-0.5-3.1-0.7-4.8c-0.3-2.2-1.1-4.2-1.9-6.2c0,0-0.1-0.1-0.1-0.1c-0.3,0.4-0.3,0.9-0.4,1.4c-0.1,0.7-0.2,1.3-0.3,2
			c0,0.4-0.1,0.9-0.2,1.3c-0.1,1.2-0.4,2.3-0.5,3.5c-0.1,0.8-0.1,1.6-0.2,2.4c-0.1,1.1-0.2,2.3-0.6,3.4c-0.3,0.6-0.3,1.3-0.5,2
			c-0.2,0.5-0.3,1-0.5,1.3c-0.1,0.3-0.3,0.5-0.7,0.6c-0.3,0.1-0.7,0.1-0.8,0.6c-0.5,0.3-0.5,1-1.1,1.1c-0.1-0.1-0.3-0.3-0.5-0.5
			c-0.3,0.3-0.6,0.3-1,0.3c-0.5-0.1-0.7-0.2-0.8-0.5c-0.1-0.3-0.2-0.6-0.1-0.9c0.1-1.1,0.2-2,0.3-3c0.1-0.7,0.1-1.5,0.3-2.2
			c0.1-0.8,0.4-1.6,0.5-2.4c0.1-0.8,0.3-1.7,0.5-2.6c0.2-1.1,0.5-2,0.7-3.1c0.1-0.3,0.1-0.6,0.1-0.9c0.1-0.4,0.2-0.7,0.3-1.1
			c0.1-0.3,0.2-0.6,0.3-0.9c0.2-0.6,0.3-1.2,0.5-1.8c0.2-0.7,0.4-1.3,0.5-1.9c0-0.7,0.2-1.3,0.4-2c0.1-0.8,0.3-1.5,0.6-2.2
			c0-0.1,0-0.1,0-0.2c0-0.5,0.2-0.9,0.5-1.3c0-0.1,0-0.3-0.1-0.5c0,0,0-0.2,0.1-0.3c0.2-1,0.5-2,0.7-3.1c0.1-0.2,0.3-0.3,0.3-0.5
			c0.1-0.3,0.3-0.5,0.2-0.7c-0.1-0.5,0.1-0.8,0.2-1.2c0.1-0.6,0.2-1.1,0.5-1.6c0.1-0.3,0.2-0.7,0.3-1c0.1-0.8,0.3-1.5,0.5-2.2
			c0.2-0.7,0.3-1.5,0.5-2.1c0.5-1.7,0.9-3.4,1.7-5.1c0.1-0.2,0.3-0.5,0.3-0.8c0-0.2,0-0.4,0-0.7c1.7-0.8,5.5-1.3,6.7-1.5
			c1.1-0.1,2-0.2,3,0.1c0.9,0.2,1.7,0.3,2.5,0.5c1.1,0.5,2.1,0.9,2.9,1.8c0.7,0.7,0.9,1.4,0.7,2.2c-0.5,1.4-1.3,2.5-2.1,3.7
			c-0.3,0.5-0.7,1-1,1.5c-0.5,0.8-1.1,1.6-1.6,2.4c-0.4,0.5-0.9,1.1-1.3,1.7c-0.1,0.1-0.2,0.3-0.3,0.4c-0.2,0.4-0.4,0.8-0.9,1.1
			c-0.1,0-0.1,0.1-0.3,0.1c-0.6,0.9-1.5,1.6-2.3,2.4c-0.1,0.1-0.1,0.1-0.1,0.2c-0.4,0.7-0.9,0.9-1.7,1.5c-1.1,0.7-1.3,0.8-1.5,1
			c-0.1,0.3-0.3,0.4-1.5,1.1c-0.9,0.6-0.7,0.5-0.4,1.2c0.3,0.9,0.7,1.9,1.2,2.8c0.2,0.6,0.6,1.2,1,1.7c0.3,0.8,0.8,1.7,1.2,2.5
			c0.4,0.5,0.7,1,0.9,1.5c0.5,1.1,0.7,1.9,1.3,2.8c0.5,1,0.9,2,1.3,3c0.1,0.4,0.2,0.8,0.2,1.1c0.4,1.5,0.8,3,0.9,4.6
			c0.1,1.4,0.3,2.8,0.4,4.1c0,0.1,0.1,0.2,0.1,0.3c0.3,0.6,0.3,1.1,0,1.7c-0.1,0.1,0.1,0.4,0.2,0.6c0.1,0.5,0.3,0.9,0.5,1.4
			C-88.1,422.9-88.3,423-88.3,423z M-105.1,409.7c-0.1,0-0.1-0.1-0.1-0.1c-0.1,0-0.1,0.1-0.2,0.1c0.1,0.1,0.1,0.1,0.2,0.1
			C-105.2,409.9-105.2,409.7-105.1,409.7z M-102.7,399c0-0.3,0-0.4,0.1-0.7C-102.9,398.6-103,398.7-102.7,399z M-99.3,399.2
			c-0.1,0.1-0.3,0.3-0.1,0.6C-99.2,399.6-99.2,399.4-99.3,399.2z M-98.6,402.6c0.1,0.1,0.5,0.1,0.3,0.5l0.1,0.1
			c0.2,0.1,0.3,0.3,0.4,0.5c0.2,0.5,0.3,0.9,0.5,1.5c0.1,0.3-0.1,0.6,0,0.9c0,0.2,0,0.5,0.1,0.7c0.1,0.2,0.2,0.3,0.1,0.4
			c0,0.3,0.2,0.6,0.5,0.6c0,0.5-0.1,0.9,0.1,1.3c0.1,0.4,0.4,0.7,0.6,1.1c-0.1-0.1-0.1,0.1-0.3,0.2c0.1,0,0.1,0.1,0.1,0.1
			c0.2,0,0.4-0.1,0.7-0.2c-0.2-0.3-0.2-0.5,0-0.6c-0.1-0.3-0.4-0.5-0.5-0.8c0-0.5,0.1-0.8-0.3-1.1c-0.1,0,0-0.3,0-0.4
			c0.1-0.3,0.1-0.5-0.2-0.8c-0.1-0.1-0.3-0.4-0.1-0.7c0.1-0.1,0-0.3-0.1-0.5c-0.2-0.4-0.5-0.9-0.3-1.3c0.1-0.2,0.1-0.4-0.1-0.5
			c-0.2-0.3-0.3-0.5,0-0.7c-0.7-0.5-1.1-1.1-1.1-1.9c0-0.5-0.2-0.9-0.7-1c0,0-0.1,0.1-0.1,0.1c0,0.5,0.1,0.9,0.4,1.3
			C-98.2,401.7-98.2,402.1-98.6,402.6z M-92.1,384c0.1-0.1,0-0.4,0.1-0.5c0.3-0.3,0.5-0.7,0.9-0.8c0.6-0.3,0.7-0.9,1.3-1.1
			c0.1,0,0.1-0.1,0.1-0.1c0.1-0.6,0.7-0.9,1.1-1.5c1.1-1.3,2-2.8,2.7-4.4c0.1-0.4,0.1-0.5-0.4-0.6c-0.5-0.1-0.9,0-1.4-0.1
			c-1.7-0.1-3.3,0.1-4.9,0.6c-0.6,0.2-3.6,0.5-3.6,1.1c-0.1,1-0.2,2-0.5,3c-0.2,1.2-0.7,2.4-0.9,3.6c-0.2,1.1-0.9,6.1-1,7.2
			c-0.1,0.3,1.9-1.9,2.2-1.9c0.1-0.4,0.3-0.7,2.1-2.5c0.1-0.1,0.1-0.1,0.1-0.1C-93.6,385.2-92.8,384.7-92.1,384z M-98.1,404.1
			c0.1,0,0.1,0,0.1,0C-98,404-98,404-98,403.9C-98.1,403.9-98.1,404-98.1,404.1C-98.1,404.1-98.1,404.1-98.1,404.1z M-96,411.2
			c0.1,0,0.1-0.1,0.1-0.1c-0.1-0.1-0.1-0.1-0.1-0.3c-0.1,0.1-0.1,0.1-0.1,0.1C-96,411-96,411.1-96,411.2z M-95.7,405.1
			c0.1,0,0.1-0.1,0.1-0.1c0-0.2-0.1-0.4-0.1-0.6C-95.7,404.7-95.8,404.9-95.7,405.1z M-95,413.5c0,0,0-0.1,0-0.1
			c-0.1,0.1-0.1,0.1-0.2,0.1c0.1,0.1,0.1,0.1,0.1,0.1C-95.1,413.6-95,413.6-95,413.5z M-94.7,414.8c0.1-0.3-0.1-0.5-0.2-0.8
			C-95.2,414.4-95.1,414.6-94.7,414.8z M-94.9,418.3C-94.9,418.2-95,418.2-94.9,418.3c-0.1-0.1-0.1-0.1-0.1-0.1L-94.9,418.3
			C-94.9,418.3-94.9,418.3-94.9,418.3z M-94.7,406.7c-0.1,0.1-0.2,0.1-0.2,0.2c0.1,0.1,0.1,0.1,0.2,0.1c0.1,0,0.1-0.1,0.1-0.1
			C-94.6,406.8-94.7,406.8-94.7,406.7z M-94.5,408.7c-0.1,0-0.1-0.1-0.1-0.1c0,0.1,0,0.2,0,0.3c0,0,0.1,0.1,0.1,0.1
			C-94.5,408.9-94.5,408.8-94.5,408.7z M-94.4,418.3c0-0.1,0-0.1,0-0.1c-0.1,0.1-0.1,0.1-0.1,0.1c-0.1,0.1,0,0.1,0,0.1
			C-94.5,418.4-94.4,418.3-94.4,418.3z M-94.3,419.3L-94.3,419.3c0-0.1,0-0.3-0.1-0.3s-0.1,0.1-0.1,0.1
			C-94.5,419.2-94.4,419.2-94.3,419.3z M-93.9,419.3c-0.2,0.2-0.2,0.3,0.1,0.5C-93.7,419.6-93.6,419.5-93.9,419.3z M-92.6,413.8
			c-0.4-0.1-0.6-0.1-0.9-0.1c0.2,0.3,0.3,0.5,0.6,0.5C-92.8,414.1-92.8,413.9-92.6,413.8z M-92.1,419c0.4-0.5,0.1-0.9,0.1-1.3
			c0-0.3-0.4-0.6-0.5-0.9c-0.1,0-0.1,0-0.1,0c-0.1,0.2-0.2,0.4-0.1,0.5C-92.6,417.9-92.5,418.5-92.1,419z M-92.7,416.4
			c0.1,0.2,0.3,0.1,0.5-0.1C-92.4,416.2-92.6,416.2-92.7,416.4z M-91,417.5L-91,417.5c0.1-0.1,0-0.1,0-0.1c-0.1,0-0.1,0.1-0.1,0.1
			C-91,417.5-91,417.5-91,417.5z M-90.6,417.9c-0.4,0.2-0.3,0.3-0.2,0.5c0,0,0.1,0,0.2,0C-90.6,418.3-90.6,418.2-90.6,417.9z
			 M-90.2,418.7L-90.2,418.7c0.1-0.1,0.1-0.1,0.1-0.2c0-0.1-0.1,0-0.1,0C-90.2,418.5-90.2,418.6-90.2,418.7z"/>
		<path class="st1" d="M-75.4,372.4c0.6-0.1,1,0,1.3,0.3c0.5,0.4,0.9,0.8,1.4,1.3c0.5,0.6,0.6,1.3,0.5,2.1c-0.3,1.9-0.7,3.6-1.3,5.4
			c-0.5,1.7-0.9,3.5-1.3,5.4c-0.2,1.1-0.5,2.1-0.8,3.2c0,0.2-0.1,0.3-0.2,0.5c-0.1,0.1-0.1,0.3-0.1,0.5c0.1,1.1-0.3,2.2-0.6,3.3
			c-0.4,1.3-0.8,2.7-1.1,4c-0.4,1.3-0.9,2.6-1.2,4c-0.3,0.9-0.5,1.8-0.7,2.6c-0.2,0.7-0.3,1.4-0.5,2.1c-0.3,1.5-0.5,3-0.5,4.6
			c-0.1,0.9-0.1,1.7-0.2,2.6c-0.1,0.7,0,1.5-0.1,2.1c-0.1,0.9-0.4,1.8-0.6,2.7c-0.1,0.3-0.1,0.7-0.2,1c-0.5-0.1-0.9-0.1-1.3-0.1
			c0.1,0.2,0.1,0.3,0.2,0.5c-0.2,0-0.4,0-0.5,0c-0.6-0.1-0.7-0.1-0.7,0.5c0,0.1,0,0.2,0,0.3c-0.3,0-0.5-0.2-0.5-0.4
			c-0.1-0.5-0.5-0.7-0.9-0.9c-0.7-0.3-0.7-0.5-0.6-1.2c0.1-1.3,0.3-2.5,0.5-3.8c0.3-1.9,0.3-3.8,0.5-5.6c0.1-0.3,0.1-0.5,0.2-0.7
			c0-0.3,0.1-0.5,0.1-0.8c0.1-0.8,0.2-1.5,0.3-2.3c0.1-0.4,0.2-0.9,0.2-1.3c0.1-0.8,0.1-1.5,0.4-2.2c0.2-0.6,0.3-1.3,0.3-1.9
			c0.3-1.3,0.5-2.6,0.8-3.8c0.2-0.9,0.3-1.8,0.5-2.7c0.5-1.9,0.9-3.8,1.3-5.7c0.3-1.6,0.7-3.2,1.2-4.8c0.3-1.3,0.8-2.5,1.3-3.8
			c0.3-0.7,0.5-1.4,0.7-2C-77,375.8-76.2,374.1-75.4,372.4z"/>
		<path class="st1" d="M-61,418.9c-0.5-0.1-0.9-0.1-1.5-0.2c-0.1,0.2-0.2,0.3-0.3,0.6c-0.5-0.1-0.9-0.1-1.5-0.2c0,0.4,0,0.7,0,1
			c-0.1,0.5-0.7,0.8-1.1,0.6c-0.2-0.1-0.5-0.3-0.7-0.3c-0.4-0.1-0.7-0.2-0.9-0.6c-0.1-0.2-0.5-0.3-0.7-0.5c0.3-0.4,0.6-0.9,1.1-0.9
			c0.3-0.1,0.5-0.2,0.5-0.5c0-0.2-0.2-0.3-0.3-0.5c-0.1-0.1-0.1-0.1-0.3-0.2c-0.3,0.7-0.8,0.4-1.3,0.3c-0.1,0.1-0.2,0.3-0.3,0.3
			c-0.3,0.1-0.5,0.4-0.7,0.7c-0.4,0.5-0.8,0.5-1.2,0c-0.3-0.4-0.5-0.9-0.4-1.4c0.7-3,1.3-6,2-9c0.3-1.7,0.7-3.3,0.9-4.9
			c0.5-2.8,1-5.5,1.5-8.3c0.1-0.3,0-0.5-0.1-0.8c-0.1-0.5-0.1-1.1,0.1-1.5c0.5-0.7,0.7-1.6,0.9-2.4c0.6-3.2,1.3-6.3,2.1-9.5
			c0.1-0.5,0.1-0.7-0.3-1c-0.8-0.5-1.2-1.2-1.1-2.2c0-0.3-0.1-0.6-0.3-0.8c-0.1-0.1-0.2-0.3-0.3-0.4c0.2-0.3,0.3-0.6,0.6-0.8
			c1.1-1.3,2.5-2.2,4-2.8c0.4-0.2,0.8-0.4,1-0.9c0.2-0.3,0.4-0.4,0.7-0.3c0.3,0.2,0.5,0.1,0.8,0c1.7-0.7,3.5-1.1,5.4-1.4
			c1.2-0.2,2.4-0.3,3.6-0.2c0.8,0.1,1.7,0.2,2.4,0.6c0.9,0.5,1.7,1,2.6,1.6c0.3,0.1,0.5,0.5,0.7,0.8c0.1,0.1,0.1,0.3,0.3,0.5
			c0.8,1.1,0.9,2.3,0.5,3.6c-0.2,0.5-0.4,0.9-0.6,1.4c-0.3,0.7-0.5,1.3-0.8,1.9c-0.4,0.7-0.8,1.5-1.3,2.1c-0.4,0.5-0.7,1-1.1,1.5
			c-1.1,1.3-2.2,2.6-3.6,3.8c-0.7,0.5-1.3,0.9-1.9,1.5c-0.1,0.1-0.3,0.3-0.5,0.6c0.4,0.1,0.7,0.2,0.9,0.3c0.9,0.3,1.7,0.7,2.4,1.3
			c0.9,0.8,1.6,1.9,2,3c0.3,0.9,0.5,1.9,0.5,3c-0.1,1.6-0.1,3.2-0.1,4.9c-0.1,2-0.5,3.8-1.6,5.6c-0.4,0.7-0.9,1.5-1.4,2.2
			c-0.9,1.3-2.1,2.3-3.1,3.6c-0.2,0.2-0.4,0.3-0.6,0.5c-1.7,1.4-3.5,2.4-5.3,3.6c-0.6,0.3-1.1,0.9-1.9,0.7
			C-60.5,418.3-60.8,418.7-61,418.9z M-65.7,416.1c0,0.1-0.1,0.1-0.1,0.2c0,0,0.1,0.1,0.1,0.1c0.1-0.1,0.1-0.1,0.1-0.1
			C-65.5,416.2-65.6,416.2-65.7,416.1z M-65.5,419c-0.1,0.1-0.1,0.1-0.2,0.1c0,0.1,0.1,0.1,0.1,0.2c0.1,0,0.1-0.1,0.2-0.1
			C-65.5,419.1-65.5,419.1-65.5,419z M-63.1,415.9c0.7-0.5,1.4-0.9,2-1.5c1.2-0.9,2.3-1.7,3.2-2.9c0.3-0.5,0.7-1,1.2-1.3
			c0.8-0.5,1.1-1.6,1.9-2c0.3-0.6,0.7-1.1,1.1-1.5c0.9-1.1,1.7-2.4,2.5-3.6c0.7-1,1.4-2,1.7-3.2c0.5-1.8,0.7-3.6,0.7-5.5
			c-0.1-0.7-0.3-1.1-0.9-1.3c-0.1-0.1-0.3-0.1-0.5-0.2c-1.7-0.5-3.5-0.6-5.4-0.6c-1.2,0-2,0.9-3,1.3c-0.1,0.1-0.1,0.1-0.1,0.1
			c-0.1,0.4-0.4,0.4-0.7,0.4c-0.3,0.1-0.5,0.1-0.7,0.4c-0.3,0.8-0.5,1.6-0.8,2.4c-0.1,0.3-0.1,0.5-0.1,0.8c-0.1,1.1-0.3,2.1-0.5,3.1
			c-0.2,1.1-0.5,2-0.7,3c-0.1,0.3-0.3,0.7-0.3,1.1c-0.3,1.3-0.7,2.7-1,4c-0.3,0.9-0.5,1.9-0.8,2.8c-0.1,0.3-0.1,0.5-0.2,0.7
			c-0.4,0.5-0.4,0.9-0.4,1.5c0,0.7-0.1,1.4-0.3,2.1c-0.2,0.5-0.2,1,0.3,1.3c0,0.3-0.1,0.6-0.1,1c0.3-0.1,0.6-0.2,0.7-0.3
			c0.1-0.4,0.4-0.5,0.7-0.7c0.3-0.1,0.5-0.4,0.5-0.8C-63,416.4-63,416.2-63.1,415.9z M-62,418.5c-0.1-0.3-0.1-0.7-0.5-0.7
			c-0.2-0.1-0.3,0.1-0.3,0.4C-62.5,418.3-62.2,418.4-62,418.5z M-61.2,415.7c-0.1-0.1-0.1-0.1-0.1-0.1c-0.1,0-0.1,0.1-0.2,0.1
			c0,0,0.1,0.1,0.1,0.1C-61.4,415.8-61.4,415.8-61.2,415.7z M-60.8,414.9c0.6,0.2,0.7,0.1,0.9-0.5
			C-60.2,414.5-60.5,414.7-60.8,414.9z M-59.1,388.5c0.5-0.3,0.8-0.5,1.1-0.7c0.8-0.7,1.6-1.3,2.4-1.9c2.1-1.6,4-3.4,5.6-5.6
			c0.8-1.1,1.5-2.1,2.2-3.2c0.5-0.9,0.9-1.9,1.1-3c-0.4-0.1-0.8-0.1-1.1-0.1c-1.3,0-2.6,0-3.8,0.3c-0.5,0.1-0.9,0.2-1.3,0.4
			c-0.5,0.1-1,0.4-1.5,0.6c-0.7,0.3-1.5,0.8-2,1.5c-0.1,0.1-0.3,0.3-0.3,0.4c-0.4,1.4-0.9,2.7-1.1,4.1c-0.4,1.9-0.7,3.9-1,5.8
			C-59.1,387.6-59.1,388-59.1,388.5z"/>
		<path class="st1" d="M-29.6,418.5c-0.1,0.5-0.1,1-0.2,1.5c-0.1,0.1-0.1,0.3-0.1,0.3c-0.6,0.2-0.7,0.9-0.9,1.4
			c-0.1,0-0.1,0.1-0.3,0.1c-0.1-0.2-0.1-0.3-0.1-0.5c-0.6-3-1.1-6-1.2-9.1c0-0.5-0.1-0.9-0.1-1.4c-0.2-2.8,0-5.6,0.1-8.3
			c0.1-0.7,0.1-1.3,0.1-2c0-0.5-0.3-0.9-0.7-1.1c-0.8-0.2-1.5,0.2-2.1,0.6c-0.5,0.3-0.9,0.6-1.5,0.7c-0.3,0-0.5,0.2-0.6,0.6
			c-0.4,1.2-0.9,2.4-1.3,3.6c-0.3,0.9-0.5,1.8-0.7,2.7c-0.5,1.8-1.1,3.6-1.9,5.2c-0.4,0.8-1.1,1.5-1.8,1.9c-0.4,0.2-0.7,0.5-1.1,0.7
			c-0.3,0.2-0.6,0.3-0.9,0.3c-0.4,0.1-0.6-0.2-0.5-0.7c0.4-2.6,1.1-5.2,1.9-7.6c0.4-1.1,0.9-2.2,1.3-3.3c0.3-0.9,0.5-1.7,0.7-2.6
			c0.7-2,1.4-4,2-6c0.5-1.2,0.9-2.4,1.3-3.6c0.4-1.1,0.9-2.2,1.3-3.2c0.1-0.3,0.2-0.7,0.3-1.1c0-0.1,0.1-0.3,0.1-0.4
			c0.5-1.6,1.1-3.2,1.7-4.8c0.1-0.4,0.3-0.9,0.5-1.3c0.4-1.1,0.7-2,1.1-3.1c0.6-1.7,1.3-3.4,1.8-5c0.4-1,0.6-2,1-3.1
			c0.1-0.1,0.4-0.3,0.7-0.6c0.8,0.4,1.6,0.8,2.4,1.2c0.5,0.3,1.1,0.5,1.6,0.9c1.5,0.9,2.2,2.2,2.6,4c0.1,0.6,0.2,1.3,0.1,1.8
			c-0.2,0.9-0.1,1.8-0.2,2.6c-0.1,1.2-0.1,2.4-0.3,3.6c-0.1,2.2-0.3,4.4-0.5,6.5c-0.1,0.7-0.2,1.4-0.3,2.1c0,0.3,0.1,0.7,0,1.1
			c0,0.2,0,0.4-0.1,0.6c0,0.1-0.1,0.3-0.1,0.5c-0.1,1-0.2,2-0.3,3c-0.1,0.3-0.1,0.7-0.1,1.1c-0.2,2-0.3,4.2-0.6,6.2
			c-0.2,1.2-0.5,2.4-0.8,3.5c-0.4,1.2-0.5,2.5-0.7,3.7c-0.1,0.3-0.1,0.7-0.2,1c-0.3,1.4-0.7,2.7-1.1,4.1c-0.1,0.4-0.2,0.8-0.7,0.9
			C-29.5,417.6-29.5,418.1-29.6,418.5c-0.1-0.1-0.1-0.2-0.1-0.3l-0.1,0.1C-29.8,418.3-29.7,418.4-29.6,418.5z M-31.4,383
			c-0.1-0.1-0.1-0.1-0.2-0.1c-1.6,4.9-3.2,9.8-4.4,14.9c0.2,0,0.3,0,0.3-0.1c0.9-0.3,1.8-0.7,2.6-1.1c0.8-0.3,0.8-0.3,0.9-1.5
			c0,0,0-0.1,0-0.1c0.2-3.2,0.4-6.3,0.6-9.5C-31.5,384.8-31.5,383.9-31.4,383z"/>
		<path class="st1" d="M7.2,378.7c-0.3,1.5-0.7,3.1-0.9,4.7c-0.6,2.4-1.1,4.9-1.7,7.3c-0.3,1.4-0.6,2.8-0.9,4.2
			c-0.2,1.1-0.3,2.2-0.5,3.4c-0.4,1.9-0.9,3.8-1.3,5.6c-0.1,0.3-0.1,0.6-0.1,0.9c-0.3,1.3-0.5,2.7-0.8,4c-0.1,0.7-0.3,1.3-0.4,1.9
			c-0.1,0.3-0.2,0.6-0.1,0.9c0.1,1.1-0.1,2.2-0.5,3.3c-0.3,0.5-0.3,1.1-0.5,1.7c-0.1,0.3-0.1,0.5-0.3,0.7c0,0.1-0.1,0.2-0.1,0.3
			c0.1,0.7-0.2,1.3-0.2,2.1c0,0.3-0.1,0.7-0.3,1c-0.2,0.5-0.5,0.5-0.7,0.2c-0.2-0.2-0.3-0.4-0.5-0.6c-0.3,0.3-0.4,0.6-0.7,0.7
			c-0.5,0.6-0.9,0.5-1.3,0c-0.2-0.1-0.3-0.3-0.5-0.3c-0.3-0.2-0.5-0.5-0.7-0.7c-0.7-0.9-0.7-2-1-3c-0.2-1.1-0.3-2.2-0.5-3.2
			c-0.2-1.3-0.3-2.5-0.3-3.8c0-1.3,0.1-2.6-0.3-3.9c-0.2-0.5-0.1-1.1-0.3-1.6c-0.2-1-0.3-2-0.3-3c0.1-0.7,0.1-1.5,0-2.2
			c0.1-0.1,0-0.4-0.1-0.7c-0.1,0.3-0.2,0.4-0.3,0.5c-0.2,0.7-0.3,1.5-0.5,2.2c-0.4,1.3-0.7,2.8-1.2,4.2c-0.3,1-0.5,2.2-0.9,3.3
			c-0.1,0.2-0.1,0.5-0.3,0.7c-0.1,0.1-0.3,0.3-0.5,0.5c0,0,0.1,0.1,0.2,0.2c-0.3,1.5-0.7,3-1,4.5c-0.2,1-0.4,1.9-0.6,2.9
			c-0.1,0.4-0.3,0.8-0.5,1.2c-0.3-0.1-0.5-0.2-0.7-0.3c-0.3-0.2-0.5-0.3-0.9,0.1c-0.2,0.2-0.5,0.3-0.8,0.4c-0.8,0.1-1.5,0.7-2.3,0.3
			c-0.5-0.3-0.8-0.6-1-0.9c-0.1-0.2,0-0.5,0-0.7c0.1-0.3,0.1-0.6,0.1-0.9c-0.3-1.7-0.2-3.2-0.1-4.8c0.1-1,0.1-2,0.2-3
			c0.1-1,0.1-2,0.4-3c0-0.1,0.1-0.3,0.1-0.4c-0.2-0.7,0.1-1.3,0.2-1.9c0-0.6,0.1-1.2,0.1-1.8c0.1-1.2,0.2-2.4,0.3-3.6
			c0.1-0.6,0.1-1.3,0.1-1.9c0.1-0.3,0.1-0.8,0.1-1.2c0.1-0.5,0.1-0.9,0.2-1.4c0.1-0.5,0.1-1,0.1-1.5c0-1.2,0-2.3-0.1-3.5
			c-0.3-1.5,0-2.8-0.1-4.2c-0.1-1.2,0.1-2.4,0.1-3.5c-0.1-0.7-0.1-1.4,0.1-2.1c0-0.1,0-0.2,0-0.3c-0.1-1.1,0-2.1,0.1-3.2
			c0.1-0.3,0.1-0.7,0.1-1.1c0-0.5-0.1-0.9,0-1.3c0-0.1,0.1-0.3,0.3-0.3c0.1-0.1,0.3,0,0.5,0c0.1-0.3,0.3-0.6,0.5-0.9
			c0.1,0.1,0.2,0.2,0.3,0.2c0.5,0.2,0.6,0.1,0.7-0.4c0.1-0.6,0.4-0.8,1-0.7c0.4,0.2,0.8,0.3,0.9,0.7c0.3,0.6,0.1,0.7-0.4,0.9
			c-0.1,0.1-0.2,0.1-0.4,0.2c0.3,0.2,0.5,0.5,0.5,0.9c0,0.1,0.1,0.1,0.1,0.2c0.5,0.2,0.3,0.6,0.3,0.9c-0.1-0.1-0.1-0.3-0.3-0.5
			c0,0.6-0.1,1.1-0.1,1.6c0.5,0.1,0.3-0.4,0.5-0.6c0.1,0.7,0.1,1.4,0.1,2.1c0,0.3,0.1,0.5,0.1,0.8c0.1,0.7-0.1,1.3-0.2,1.9
			c0,0.1-0.1,0.3,0,0.3c0.4,0.6,0.2,1.3,0.2,2c0,1.2-0.1,2.3-0.1,3.5c0,2.1,0.1,4.2,0.1,6.3c0.1,0.5,0.1,1.1,0.1,1.8
			c0.1-0.2,0.2-0.3,0.2-0.3c0.2-1.2,0.3-2.4,0.5-3.6c0.1-0.5,0.1-1.1,0.4-1.6c0.4-0.7,0.5-1.7,0.7-2.5c0.1-0.9,0.5-1.6,0.8-2.3
			c0.1-0.1,0.1-0.2,0.2-0.3c0.8-0.3,1.5-0.7,2.3-0.5c0.3,0.1,0.7,0.2,0.9,0.2c0.3-0.3,0.4-0.6,0.6-0.7c0.5-0.3,0.8-0.1,1.1,0.3
			c0.3,0.4,0.5,0.9,0.6,1.3c0,0.1-0.1,0.3-0.2,0.5c-0.1,0.2-0.3,0.3-0.4,0.5c0.1,0.3,0.3,0.7,0.5,1.1c0.1,0.1-0.1,0.3-0.1,0.4
			c-0.2,0.3-0.2,0.6,0,0.7c0.3,0.1,0.4,0,0.5-0.3c0.1-0.1,0.1-0.2,0.1-0.4c0.1,0.1,0.1,0.2,0.1,0.3c0.2,1.3,0.3,2.6,0.5,3.9
			c0.1,0.5,0.1,1.1,0.3,1.7c0.3,1,0.1,1.9,0.1,2.9c0,0.1-0.1,0.3,0,0.3c0.3,0.5,0.2,1,0.3,1.5c0.1,2.2,0.4,4.4,0.5,6.6
			c0.1,1,0.1,2,0.2,3c0.1,0.2,0.1,0.5,0.1,0.7c0,0,0.1,0,0.1,0c0.1-0.7,0.3-1.5,0.5-2.2c0.1-0.7,0.3-1.3,0.5-1.9
			c0.2-1,0.5-1.9,0.7-2.9c0.3-1.3,0.4-2.7,0.6-4.1c0.1-1.5,0.3-2.8,0.5-4.3c0.1-0.5,0.1-1.1,0.2-1.7c0.1-1.2,0.1-2.3,0.2-3.5
			c0.1-0.4-0.1-0.8,0.1-1.3c0.1-1.5,0.3-3,0.4-4.6c0.1-0.1,0.1-0.3,0.1-0.5c0.3-0.5,0.3-1,0.3-1.5c0.1-0.9,0.2-1.1,1-1.4
			c0.9-0.4,1.7-0.1,2.4,0.1c0.1,0.1,0.3,0.2,0.5,0.2C6.2,377.8,6.7,378.2,7.2,378.7z M-13.6,416.5c-0.2-0.2-0.4,0-0.3,0.2
			c0,0.2,0.1,0.4,0.2,0.6c0.1-0.1,0.2-0.1,0.2-0.2C-13.5,416.9-13.6,416.7-13.6,416.5z M-13.7,381.9
			C-13.7,381.9-13.7,382-13.7,381.9l0.1,0.1C-13.6,382-13.6,381.9-13.7,381.9C-13.6,381.9-13.6,381.9-13.7,381.9z M-12.9,412.5
			c0.1,0.1,0.1,0.1,0.1,0.2c0.1,0,0.1,0,0.1-0.1c0.1-0.1,0.1-0.1,0.1-0.2C-12.7,412.5-12.7,412.5-12.9,412.5z M-6,386.8
			c0.6-0.6,0.7-0.8,0.3-1.1C-6,386-6,386.4-6,386.8z M-4.7,388.6c-0.1,0-0.1,0.1-0.1,0.1c0,0.3,0.1,0.5,0.5,0.5
			C-4.5,388.9-4.6,388.7-4.7,388.6z M-4.7,388.2c0.3-0.1,0.3-0.3,0.2-0.5c0,0,0-0.1-0.1-0.1C-4.7,387.8-4.7,388-4.7,388.2z"/>
		<path class="st1" d="M11.4,405.7c0.2,0.6,0.1,1.1,0,1.8c-0.1,0.5-0.3,1-0.1,1.7c0.1,0.5-0.1,1-0.1,1.5c0.1,1.3-0.3,2.6,0.1,4
			c0,0.2-0.1,0.5-0.1,0.7c0,0.5,0,1,0.4,1.5c0.6-0.3,1.3-0.4,1.8-0.9c1-1.1,1.7-2.4,2.4-3.6c0.6-1.1,1.1-2.2,1.7-3.3
			c0.1-0.2,0.3-0.5,0.3-0.7c0.4-2,1.3-3.8,1.9-5.6c0.6-1.5,1.1-3,1.7-4.5c-0.3-0.2-0.6-0.5-1-0.7c-0.6-0.3-1.1-0.7-1.5-1.4
			c-0.1-0.3-0.2-0.6-0.3-0.9c0.4-0.3,0.7-0.4,1.1-0.5c0.9-0.3,1.7-0.5,2.5-0.7c1.3-0.3,2.5-0.3,3.8-0.1c0.7,0.1,1.5,0.1,2.3,0.1
			c0.7,0,1.5,0.1,2.2,0.1c0.1,0,0.2,0.1,0.3,0.1c0.3,1.1,0.1,1.5-0.8,1.9c-0.1,0.1-0.3,0.3-0.4,0.4c-0.4,0.6-0.9,0.9-1.5,1
			c-0.2,0.1-0.4,0.1-0.6,0.2c-0.7,0-0.9,0.5-1.1,1.1c-0.3,1.7-0.7,3.3-1.1,4.8c-0.3,1.1-0.8,2.1-1.3,3.1c-0.6,1.3-1.2,2.6-1.7,4
			c-0.5,1.1-0.8,2.3-1.2,3.4c-0.2,0.7-0.5,1.4-0.9,2c-0.1,0.3-0.3,0.6-0.4,0.9c-0.3,1.1-0.8,1.9-1.5,2.6c-0.7,0.7-1.5,1.1-2.4,1.5
			c-0.4,0.1-0.8,0.2-1.3,0.3c-1.3,0.3-2.5-0.2-3.6-0.9c-0.4-0.7-1.1-0.9-1.7-1.2c-0.1,0-0.1-0.1-0.2-0.1c0.2-0.3,0.4-0.3,0.5-0.5
			c0.1-0.1,0-0.4,0-0.6c0-0.5,0.1-1.1-0.3-1.7c-0.1-0.1,0-0.3-0.1-0.5c-0.1-0.5-0.2-0.9-0.3-1.3c-0.1-0.1-0.1-0.3,0-0.5
			c0.1-0.4,0.2-0.7,0.4-1.1c-0.5-0.1-0.7-0.1-0.9,0.3c-0.1,0.2-0.2,0.3-0.3,0.4c-0.3,0.5-0.3,0.9,0.1,1.2c0.3,0.3,0.2,0.7,0.1,1.1
			c0,0.3-0.3,0.5-0.7,0.4C8,416,7.7,415.5,7.6,415c-0.1-0.9-0.4-1.9,0-2.8c0.1-0.1,0-0.3,0-0.3c0-0.7,0.1-1.3,0.1-2
			c0.1-0.9,0.3-1.7,0.4-2.6c0.1-0.1,0.1-0.3,0.1-0.4c-0.2-0.7,0.2-1.2,0.3-1.8c0.2-0.8,0.3-1.7,0.5-2.4c0.1-0.1,0-0.3,0.1-0.5
			c0.5-0.9,0.7-2,0.9-3c0.2-0.7,0.5-1.5,0.7-2.1c0-0.1,0.1-0.1,0.1-0.2c0-1.4,0.9-2.4,1.2-3.5c0.4-1.2,0.9-2.3,1.4-3.4
			c0.1-0.2,0.1-0.3,0.1-0.5c-0.1-0.5,0.4-0.8,0.3-1.3c0.5-0.4,0.5-1,0.7-1.5c0.3-0.7,0.7-1.3,1-1.9c0.1-0.3,0.2-0.5,0.3-0.7
			c0.1-0.1,0.1-0.3,0.2-0.5c0.7-1.2,1.4-2.3,2-3.5c0.7-1.1,1.5-2.2,2.2-3.3c0.3-0.5,0.6-1.1,0.9-1.6c1.1-1.7,2.3-3.1,3.7-4.4
			c0.2-0.3,0.4-0.4,0.6-0.5c0.4-0.3,0.8-0.4,1.3-0.2s1,0.2,1.5,0.3c0.7,0.3,1.5,0.7,1.7,1.5c0.1,0.1,0.1,0.1,0.1,0.1
			c0.7,1.3,0.5,1.3-0.3,2.4c-0.1,0.1-0.2,0.2-0.3,0.3c-1.3,0.5-2.2,1.4-3,2.4c-0.9,1.1-1.9,2-2.7,3c-0.7,0.7-1.3,1.6-2,2.4
			c-0.8,0.9-1.5,1.7-2,2.6c-0.5,0.8-0.9,1.7-1.5,2.4c-0.7,1-0.9,2.3-1.8,3.2c-0.1,0.1-0.1,0.3-0.1,0.4c-0.3,0.7-0.7,1.4-1,2.1
			c-0.1,0.3-0.3,0.6-0.4,0.9c-0.3,1-0.7,1.9-1.1,2.8c-0.2,0.3-0.3,0.7-0.4,1.1c-0.2,0.9-0.4,1.7-0.6,2.5c-0.1,0.2-0.1,0.3-0.1,0.5
			c-0.1,0.9-0.4,1.7-0.7,2.6c-0.1,0.3-0.2,0.7-0.1,1C11.9,405.2,11.7,405.5,11.4,405.7z M9.1,407.4c-0.2-0.2-0.3-0.3-0.6,0
			C8.7,407.6,8.9,407.6,9.1,407.4z M8.8,410.1c-0.3,0.4-0.1,0.8,0,1.1c0.1,0.3,0.2,0.3,0.5,0.3c0.2-0.1,0.3-0.3,0.2-0.5
			C9.4,410.6,9.1,410.3,8.8,410.1z M8.7,411.9c0,0.4,0.2,0.5,0.5,0.5C9.2,412,9,412,8.7,411.9z M9.1,405.6c0-0.1,0-0.1-0.1-0.1
			c0,0.1-0.1,0.1-0.1,0.1l0.1,0.1C9,405.6,9.1,405.6,9.1,405.6z M10.3,406.6c0.1-0.2,0.3-0.3,0.3-0.5c0.3-0.5,0.3-0.8-0.2-1.2
			c-0.1-0.1-0.3-0.2-0.4-0.1c-0.1,0.1-0.3,0.3-0.2,0.5c0.1,0.7-0.3,1.5,0,2.4c0,0-0.1,0.1-0.1,0.1c-0.1,0-0.1-0.1-0.1-0.1
			c-0.1-0.2-0.2-0.2-0.3-0.1c0,0.1-0.1,0.3,0,0.3c0.3,0.3,0.2,0.7,0,1.1c-0.2,0.4-0.1,0.5,0.3,0.6c-0.1-0.8,0.5-1.4,0.7-2
			C10.3,407.2,10.5,406.9,10.3,406.6z M9.6,406.1c0-0.1-0.1-0.1-0.1-0.1c-0.1,0.1-0.1,0.1-0.1,0.1H9.6L9.6,406.1z M10.4,404.5
			c0.6-0.4,0.6-0.4,0.6-0.8c-0.1-0.6-0.5-0.9-0.7-1.3C10.2,403,10.6,403.7,10.4,404.5z M11.4,402.5c-0.1,0-0.1-0.1-0.1-0.1
			c-0.1,0-0.1,0.1-0.1,0.1c0,0,0.1,0.1,0.1,0.1C11.3,402.7,11.3,402.7,11.4,402.5z M11.3,398.1c0.1,0,0.1,0,0.1,0c0-0.1,0-0.2,0-0.3
			c0-0.1,0-0.1-0.1-0.1C11.3,397.8,11.3,398,11.3,398.1z M11.4,402.1c0.3-0.6,0.3-1,0.3-1.4C11.5,401.2,11.1,401.4,11.4,402.1z
			 M12.1,399c0.1-0.5,0.6-0.9,0.7-1.4C12.1,397.6,11.9,398.1,12.1,399z M12.4,399.6c-0.1,0-0.1,0-0.2,0c0.1,0.2-0.2,0.4,0.1,0.7
			C12.3,400,12.4,399.8,12.4,399.6z M13.1,396.2c-0.5,0.3-0.5,0.3-0.4,1c0.1-0.1,0.3-0.3,0.5-0.7C13.2,396.5,13.1,396.3,13.1,396.2z
			 M14,393.6c-0.3,0.2-0.3,0.3-0.3,0.5c0,0.1,0.1,0.1,0.1,0.1C14,394,14,393.8,14,393.6z"/>
		<path class="st1" d="M44.7,418.5c-0.1,0.5-0.1,1-0.2,1.5c-0.1,0.1-0.1,0.3-0.1,0.3c-0.6,0.2-0.7,0.9-0.9,1.4
			c-0.1,0-0.1,0.1-0.3,0.1c-0.1-0.2-0.1-0.3-0.1-0.5c-0.6-3-1.1-6-1.2-9.1c0-0.5-0.1-0.9-0.1-1.4c-0.2-2.8,0-5.6,0.1-8.3
			c0.1-0.7,0.1-1.3,0.1-2c0-0.5-0.3-0.9-0.7-1.1c-0.8-0.2-1.5,0.2-2.1,0.6c-0.5,0.3-0.9,0.6-1.5,0.7c-0.3,0-0.5,0.2-0.6,0.6
			c-0.4,1.2-0.9,2.4-1.3,3.6c-0.3,0.9-0.5,1.8-0.7,2.7c-0.5,1.8-1.1,3.6-1.9,5.2c-0.4,0.8-1.1,1.5-1.8,1.9c-0.4,0.2-0.7,0.5-1.1,0.7
			c-0.3,0.2-0.6,0.3-0.9,0.3c-0.4,0.1-0.6-0.2-0.5-0.7c0.4-2.6,1.1-5.2,1.9-7.6c0.4-1.1,0.9-2.2,1.3-3.3c0.3-0.9,0.5-1.7,0.7-2.6
			c0.7-2,1.4-4,2-6c0.5-1.2,0.9-2.4,1.3-3.6c0.4-1.1,0.9-2.2,1.3-3.2c0.1-0.3,0.2-0.7,0.3-1.1c0-0.1,0.1-0.3,0.1-0.4
			c0.5-1.6,1.1-3.2,1.7-4.8c0.1-0.4,0.3-0.9,0.5-1.3c0.4-1.1,0.7-2,1.1-3.1c0.6-1.7,1.3-3.4,1.8-5c0.4-1,0.6-2,1-3.1
			c0.1-0.1,0.4-0.3,0.7-0.6c0.8,0.4,1.6,0.8,2.4,1.2c0.5,0.3,1.1,0.5,1.6,0.9c1.5,0.9,2.2,2.2,2.6,4c0.1,0.6,0.2,1.3,0.1,1.8
			c-0.2,0.9-0.1,1.8-0.2,2.6c-0.1,1.2-0.1,2.4-0.3,3.6c-0.1,2.2-0.3,4.4-0.5,6.5c-0.1,0.7-0.2,1.4-0.3,2.1c0,0.3,0.1,0.7,0,1.1
			c0,0.2,0,0.4-0.1,0.6c0,0.1-0.1,0.3-0.1,0.5c-0.1,1-0.2,2-0.3,3c-0.1,0.3-0.1,0.7-0.1,1.1c-0.2,2-0.3,4.2-0.6,6.2
			c-0.2,1.2-0.5,2.4-0.8,3.5c-0.4,1.2-0.5,2.5-0.7,3.7c-0.1,0.3-0.1,0.7-0.2,1c-0.3,1.4-0.7,2.7-1.1,4.1c-0.1,0.4-0.2,0.8-0.7,0.9
			C44.8,417.6,44.8,418.1,44.7,418.5c-0.1-0.1-0.1-0.2-0.1-0.3l-0.1,0.1C44.6,418.3,44.6,418.4,44.7,418.5z M42.9,383
			c-0.1-0.1-0.1-0.1-0.2-0.1c-1.6,4.9-3.2,9.8-4.4,14.9c0.2,0,0.3,0,0.3-0.1c0.9-0.3,1.8-0.7,2.6-1.1c0.8-0.3,0.8-0.3,0.9-1.5
			c0,0,0-0.1,0-0.1c0.2-3.2,0.4-6.3,0.6-9.5C42.9,384.8,42.9,383.9,42.9,383z"/>
	</g>
</g>
</svg>
