<?xml version="1.0" encoding="utf-8"?>
<!-- Generator: Adobe Illustrator 19.0.0, SVG Export Plug-In . SVG Version: 6.00 Build 0)  -->
<svg version="1.1" id="Layer_1" xmlns="http://www.w3.org/2000/svg" xmlns:xlink="http://www.w3.org/1999/xlink" x="0px" y="0px"
	 viewBox="-219.3 368.2 56.7 56.7" style="enable-background:new -219.3 368.2 56.7 56.7;" xml:space="preserve">
<style type="text/css">
	.st0{display:none;}
</style>
<g id="Layer_2" class="st0">
</g>
<g id="Layer_1_1_">
	<g>
		<path d="M-202.5,422.3c-11.2-4.7-20.6-18.7-15.3-34.7c4.9-15.1,21-23.1,36.1-17.9c15.2,5.2,23,21.8,17.2,36.8
			c-5.7,15.1-21.6,21.1-34.5,17c3-4.1,3.5-8.9,4.8-13.5c0.8,0.7,1.5,1.4,2.4,2c2.9,1.8,5.9,1.5,9,0.5c3.7-1.2,6.4-3.8,8.2-7.2
			c2.3-4.3,3.2-9,2.5-13.8c-0.8-5.6-4.1-9.5-9.1-12c-6.7-3.5-18.7-2.5-24.8,5c-4,4.9-5.2,10.4-3,16.4c0.8,2.3,2.3,4,4.6,5.1
			c0.9,0.4,1.3,0.2,1.6-0.8c0-0.1,0.1-0.3,0.1-0.4c0.6-2.4,0.8-2.2-0.6-4.3c-1.6-2.3-1.5-4.9-0.9-7.5c1.2-6,6-10.1,12.1-10.6
			c1.9-0.2,3.7-0.1,5.6,0.4c4.5,1.2,7.3,4.4,7.7,9.2c0.4,4.4-0.4,8.6-2.7,12.4c-1.2,2-2.9,3.5-5.3,3.8c-2.5,0.4-4.8-1-5.3-3.2
			c-0.2-0.8-0.1-1.7,0.1-2.5c0.7-2.7,1.5-5.3,2.2-8c0.2-0.8,0.2-1.6,0.1-2.4c-0.1-1.5-0.8-2.7-2.2-3.3c-1.6-0.6-3.1-0.3-4.4,0.7
			c-1.7,1.4-2.4,3.2-2.6,5.4c-0.1,1.8,0,3.5,0.7,5.2c0.1,0.2,0.1,0.5,0,0.8c-1.2,5.1-2.5,10.2-3.6,15.4
			C-202.3,418.3-202.3,420.4-202.5,422.3z"/>
	</g>
</g>
</svg>
