<?xml version="1.0" encoding="utf-8"?>
<!-- Generator: Adobe Illustrator 16.0.4, SVG Export Plug-In . SVG Version: 6.00 Build 0)  -->
<!DOCTYPE svg PUBLIC "-//W3C//DTD SVG 1.1//EN" "http://www.w3.org/Graphics/SVG/1.1/DTD/svg11.dtd">
<svg version="1.1" xmlns="http://www.w3.org/2000/svg" xmlns:xlink="http://www.w3.org/1999/xlink" x="0px" y="0px" width="114px"
	 height="111px" viewBox="0 0 114 111" enable-background="new 0 0 114 111" xml:space="preserve">
<g id="Layer_2" display="none">
</g>
<g id="Layer_1">
	<g>
		<path d="M57,83.847c-15.654,0-28.347-12.692-28.347-28.347c0-15.653,12.693-28.347,28.347-28.347
			c15.654,0,28.346,12.693,28.346,28.347C85.347,71.154,72.654,83.847,57,83.847z M50.856,38.128
			c-8.186,0-14.885,5.652-14.885,12.837c0,4.148,2.228,7.549,5.959,10.193l-1.487,4.541l5.206-2.644
			c1.863,0.37,3.356,0.752,5.212,0.752c0.469,0,0.932-0.022,1.389-0.058c-0.29-1.013-0.463-2.065-0.463-3.165
			c0-6.594,5.588-11.945,12.658-11.945c0.485,0,0.96,0.035,1.44,0.092C64.59,42.646,58.18,38.128,50.856,38.128z M65.382,49.448
			c-7.086,0-12.663,4.924-12.663,10.953c0,6.05,5.577,10.95,12.663,10.95c1.481,0,2.979-0.376,4.466-0.752l4.083,2.273l-1.121-3.772
			c2.99-2.279,5.218-5.293,5.218-8.694C78.029,54.367,72.076,49.448,65.382,49.448z M69.467,58.514
			c-0.735,0-1.481-0.746-1.481-1.509c0-0.752,0.747-1.51,1.481-1.51c1.122,0,1.863,0.758,1.863,1.51
			C71.33,57.768,70.589,58.514,69.467,58.514z M61.275,58.514c-0.741,0-1.487-0.746-1.487-1.509c0-0.752,0.752-1.51,1.487-1.51
			c1.128,0,1.863,0.758,1.863,1.51C63.144,57.768,62.409,58.514,61.275,58.514z M56.439,48.316c-1.111,0-2.233-0.758-2.233-1.887
			c0-1.14,1.117-1.886,2.233-1.886c1.128,0,1.863,0.746,1.863,1.886C58.302,47.559,57.562,48.316,56.439,48.316z M46.02,48.316
			c-1.116,0-2.245-0.758-2.245-1.887c0-1.134,1.128-1.886,2.245-1.886c1.117,0,1.857,0.746,1.857,1.886
			C47.877,47.559,47.137,48.316,46.02,48.316z"/>
	</g>
</g>
</svg>
