<?xml version="1.0" encoding="utf-8"?>
<!-- Generator: Adobe Illustrator 19.0.0, SVG Export Plug-In . SVG Version: 6.00 Build 0)  -->
<svg version="1.1" id="Layer_1" xmlns="http://www.w3.org/2000/svg" xmlns:xlink="http://www.w3.org/1999/xlink" x="0px" y="0px"
	 viewBox="-219.3 368.2 56.7 56.7" style="enable-background:new -219.3 368.2 56.7 56.7;" xml:space="preserve">
<style type="text/css">
	.st0{display:none;}
</style>
<g id="Layer_2" class="st0">
</g>
<g id="Layer_1_1_">
	<g>
		<path d="M-191,368.2c15.6-0.1,28.6,12.7,28.4,28.8c-0.2,15.6-13.1,28.2-28.9,27.9c-15.3-0.3-27.9-12.8-27.8-28.5
			C-219.3,380.8-206.6,368.2-191,368.2z M-182.7,378.5c-2.8,0.1-5.6-0.3-8.4,0.4c-2.8,0.7-4.4,2.7-4.5,5.6c-0.1,1.6,0,3.2,0,4.7
			c0,0.4,0,0.7,0,1.1c-1.3,0-2.5,0-3.8,0c0,2.1,0,4.1,0,6.2c1.3,0,2.5,0,3.8,0c0,6.1,0,12.1,0,18.2c2.4,0,4.8,0,7.3,0
			c0-6.1,0-12.2,0-18.3c1.7,0,3.4,0,5.1,0c0.2-2.1,0.4-4,0.5-6.1c-1.9,0-3.7,0-5.6,0c0-1.5,0-2.8,0-4.2c0-0.9,0.4-1.2,1.3-1.3
			c0.9-0.1,1.9,0,2.8-0.1c0.5,0,1,0,1.5,0C-182.7,382.6-182.7,380.6-182.7,378.5z"/>
	</g>
</g>
</svg>
